<mxfile host="65bd71144e">
    <diagram id="BiS-Et2s5VZbheQKxGWL" name="Page-1">
        <mxGraphModel dx="1533" dy="1068" grid="1" gridSize="10" guides="1" tooltips="1" connect="1" arrows="1" fold="1" page="1" pageScale="1" pageWidth="850" pageHeight="1100" math="0" shadow="0">
            <root>
                <mxCell id="0"/>
                <mxCell id="1" parent="0"/>
                <mxCell id="2" value="" style="shape=image;verticalLabelPosition=bottom;labelBackgroundColor=default;verticalAlign=top;aspect=fixed;imageAspect=0;image=data:image/png,iVBORw0KGgoAAAANSUhEUgAAAwMAAAE9CAYAAABXzb7XAAAAAXNSR0IArs4c6QAAAARnQU1BAACxjwv8YQUAAAAJcEhZcwAADsMAAA7DAcdvqGQAAL3MSURBVHhe7d0HmC1Fmf/x3lXXLCgKiiiKgIhEWZAsouQkOYOXnDNIDoKARMk5XXIOEiRITkqUpIgiKmbXuLu66u7/fz/l1PVwnJzuzJzf93n6OTN9+nRVV3dXvane+pf/N4UmhBBCCCGE0HH8a9dnCCGEEEIIocOIMhBCCCGEEEKHEmUghBBCCCGEDiXKQAghhBBCCB1KlIEQQgghhBA6lCgDIYQQQgghdChRBkIIIYQQQuhQogyEEEIIIYTQoUQZCCGEEEIIoUOJMhBCCCGEEEKHEmUghBBCCCGEDiXKQAghhBBCCB1KlIEQQgghhBA6lCgDIYQQQgghdChRBkIIIYQQQuhQogyEEEIIIYTQoUQZCCGEEEIIoUOJMhBCCCGEEEKHEmUghBBCCCGEDiXKQAghhBBCCB1KlIEQQgghhBA6lCgDIYQQQgghdCj/8v+m0PV3CKGNn//8583jjz/evPjii80qq6zSzDbbbM2//du/dX3bO16tP//5z83LL7/cfOhDH2re+ta3Ni+88ELz0EMPNWussUbzrne9q3n961/fdfTw8Z//+Z/Nb37zm2b66acvZX7rW99qfvGLXzQf+chHmjnmmKP5l3/5l64jB87//d//lTbxOcsss3TtDaPFf/3Xf5VN+7/3ve/t2htCCCEMnngGQugFgvzFF1/cXHnllc1jjz3W/Md//EfXN33z17/+tQjOt99+exHOQRk488wzi3Du+5FAmQ8++GDzs5/9rPnLX/5SPr///e+XOgxV9yeIPvXUU80zzzzTtWdiMF5sIu7tc88913z3u9/t2hNCCCEMjdcdOoWuv0MILRDWCb5f+9rXmnXWWaf59a9/3bzzne9sPvCBD3Qd0TS/+93vmv/93/9t3vCGN0y1uNv3t7/9rXx+4xvfaK6++upmwQUXbGacccYixD3wwAPFy8DDwHNgg3OAAE/oZuH/05/+VOrxr//6r83rXve6UtYf//jHcn6/++///u9yzP/8z/8UL4P9lJZrr722ef/739+8+93vLhb8ueaaq3y+8Y1vLFZlv3Men87j3MogFCv/D3/4Q6lDLb9+//zzzze33XZb86tf/apck2twPsepbz2ftnB8d14Ixzq/ujimfZ861POpg3O67toGtf61PNduX70Hfmt/vQ74bS0L6ui4eqxr9Hvt11Pbq5dytJtjnEMZPu13nLoo801vetPUa3ee1n2OqfXvrgz/1zJ873jfK8Pz9Oijj5bffuxjHyv3vPW6QgghhIGSMKEQeuCll15q7rnnnubZZ59ttttuu+bLX/5ys8IKKzQbb7xx1xFNs+GGGzaLLrpoM2nSpOYd73jH1H2f+MQnmplmmqk59thjizV3oYUWanbeeeci3B100EHNrrvu2tx3333F80BoX3vttZv11luvCKSUhZtuuqkI9Zhvvvmaddddt1l88cWbX/7yl83hhx9eFBKW/ldeeaUIje973/uaffbZp3w/efLk5sYbb2w++MEPNltvvXVRYgifyyyzTLPssss2P/3pT5srrriiueOOO8pvhZuojzpXZeLUU09tfv/735fy//3f/71csxCjnXbaqdT77W9/e7Piiis2Rx11VCnzqquuar7+9a8XIfXNb35zKXeJJZYoClA7FJWzzjqrufDCC5v3vOc95Zpb9+mSKFB33nlnqQMhePnlly9tNO+885brUf+77767tIF2XnLJJUuZlIlLLrmkeeKJJ0o97rrrrmbHHXdslltuudLOFe3Du/GDH/yglLHwwgs3m222WVHWtP2TTz5ZBHdtv/766zef/OQnSz14dNxT1nnnd071XWSRRZpPf/rTpdwLLrigbDPMMEO5Nm3juuwTGiZMrLWM+eefv5ThHJ4P+88999zmRz/6UTk3JW7LLbcsipdzeCa1q1Azz13ChUIIIQyFmJRC6IFvf/vbRZAnRBOs3/a2tzW//e1vy74KwZQVl6BYsY9QN+ussxblYfbZZy/CNEs6WH6F7fA27LXXXmUegjAkgjnLO6GaNdh3BxxwQLEYswaL/Wch53EgdDo/BWPTTTctcxoItwRQiof62k+BeMtb3lIEXhZswqWwJ+FOBFBlmEtw8803l/O7ZoK5ulIQ1Nu1EbDVY+mlly5Cq0/f2ed8r776arPSSis1X/jCF4rQTthlxVbfdigmhOrW71r3EfK1oXY/+OCDyzm1zU9+8pOyPfzww80tt9xSytt3332bT33qUyX8igdH22j7H/7wh+V8FC91JYS3on0J9O4FJWD11VcvSpK2d73aZf/99y/t9cgjjxSFUJsRxtWRcrb99ts3c889d1FaeErsV8/2a2vd5/5SUJx37733LvdXecpQH9d9xhlnlPO6t7vvvntRdO69997ilaIMUUw++9nPFmXAvJAQQghhKEQZCKEbhH+w2gvvYDU2EVdYBsHuO9/5TtdRPSN0gwAqPIeAvsACCzQzzzxz+Y61+MMf/nAR1FdeeeXmox/9aLECE9gJ+RQOCgRr9mc+85linWZ9r3H6rMm8EM5NUOSZIPBTUliPWauVTaCvE5dBGHU93/zmN5vpppuulE1ZIVSqH8HS7wj7hGPfqQPrvUnUBH+KC6+E+qsXRYggy1NAOFdfn66lzlMYKH5DqGd5ZzXnFVAPyo92ELpFMNZ+hOLFFlus1JFQ7nfaXkiOdvBbdXWuVrSh4xzDok/4dl/93v2oba98cy4I6q5ViJQ25WGxaWPnsvUHVn9tM+ecc5a6O4d2pIgow3NHkXGvXK/76xooeOrKC0DRo8Cps+sMIYQQhkKUgRC6gXBGGbCxlrMYEwaFkTz99NPFsjtYCKZCbwj0BHVCOEFbiA0Lf40XZwEXksPSTQj+8Y9/3HWGpgjl5gMQaMWNUzhYu209QcBkwXZ+x1NOKBGEaV6KOq+Apd15eAq+973vFYs4JaL9moUUOZ+6EaKF3Ji47BpY3An1LOIDRTgSL4yyTb52TgIwYVjdKRmUD94AIVWOc22EaR4GUBach3LUnaBuH8VHG9TwLmFh2t211rbnTaFk8Uj4W1nqou3dR7/3v3L6Qy3DdXRXhudBeJX/77///hJSpP3t0yYhhBD6j3HLuGA8quM6ww/jGiMXr7sxhvfVOM+oZNxh+LHdeuut5ZPn2X7f817ru/XPPOCMPLzHxj6huwxIjHrG7taogbFMlIEQuoH13EutsxCuIe5ciIgQD8qBl7w7hcC+vhQFgihBsnXip306DYKiTkqMuTASm/hxHVirwCk2vqYl9Vvn6qts5yeEUjzaf+t/fxNIxdObC3DEEUeU+HhzC7rr0KqngeJw/fXXlzkLtc4UAwoBhaE7lNVKa71Zy3kl1Omcc84p4UoyMGn3KjjrlNVPWUcffXSpY+uEZN6X6hHpCVb1Vsu6tqfonX/++VOv47zzziteG+fTBhQ296G2n/KUo017o16fQYmS5by1DOUpw3nNfxAWRZEx2Hzxi19svvSlL5V5Ato6hBDCP6OPNeYYm41zDFTCLo0XDEc82AT6a665pozl5sUZ3/SxQkKFhu6yyy4l/HObbbZpttpqq2aLLbYomzlb/jd30Ly53XbbrYx3Bx54YBmHjjvuuOb0008v8/Wuu+66ojBQEigHxlQGHfVpTRox1pSEKAMhdIOOw4Tayy67rAhiNpYDnQBBXjiPl5kwWAVbnRHh1zbYF134jlj5Qw45pPnqV79aNvH8JtTqiIYCgZUXQigKAV59a51ZMlhNWEiuuuqqZs899yyx66eddlqzwQYbdJ3htRCIeRhYrHWgtb42wrnOUihLO9rLVsunVNR2gzblrRBPf+mllxZliEWeF4B1R9jPpEmTmosuumhqeeYomLsgvKrSrnB0R+sx2p4iYnCo59X22sNAoP14EbSdNoQ66+hr3Z1P/V0XXJuO3yd6K8Ogowxejc9//vNFETr77LOLp0Zb8AzV84YQQvgHjDks/vrTk08+ucy3Mn/NnLEddtihjGfGNwqCPlbo5ec+97ny3WGHHVbGOuO937P889wyCkqowXtg/DGuMXwZe0488cTSLxsbhNzOM888RTYwf47R8KSTTip9usyBPO/GVPv0+QxbFJaxRJSBEFog1NHkWWprrL/wlLqJ7yYQCuFwrL9ZqwmENH5KhJhwVMHQ/ioM9sXHP/7xcizBXIclS5D6CIHx2R+Ua2OFbi2XoMnyLMSFYKlDYqlgZWcp0enpoAic4uaVLcyHIE65IQA7r+smEDufWH3HuUaWa+dnKdeZ+p3j22HBd4w61LkZrXnzL7/88mJZcT5tbq4Gq7lja/gP67q2Vb76ah+Tc9VjsJicS3BnSRJC5LrUsbY9L4K6aDf3x31Wb14Q7QHHCL3yO/u0gdCgigHDdWjXWoZnTRl+Y74AK5W/PVsUH3MHhGNpd9fsXnjmohiEEDoRfaEwHAI7z+p+++1XLPYs9EJ3fG/sZjSSBZD1nseV4C9hBCXB3DbzxRieGP70zUJlzcfS7wr/ND/O5m/9sPBc449xgCwg3FcIJwPPqquuWjICMuSIJlAnHnZJMJRpfFEvdT7++OOnehcYfXiB2xNPjDZZZyCEFlgXvJiEPJYDnUQrhFvCGwsDawDBUcw8gZDAyMJOqPbi64wI5FyThDfKhQ7Mb1kkCIPCT+qqxPYRfikWzkdIFqbkfKzwNTad1cFEUp2SFJOE5tZ9hETnJIiyVIixd121E6MA6HgIz+IclaEuOkKwrqi371lRagYldaVIaBsCce1wHUtYtc9vuEe1hc5TR0qAbYUQrZ3Uj1BN8CUwK0tnqn2di8BPSBa6w8VqIrfyKBLK0U7qr320l46acO0798REX9fUnUKifVhwXI/7DIK86xQeps1q21NetD2virbl+nVv1F9bEOA9J8qiIDmH/a5NGY5Xf9emPHXzG7+vZShbW/k9D5Q2EC5m87f7bPAyWGgr7eKZcM9bQ51CCGGioi+UQIKnXhy/vrAmqTC+8gzzRjOqEdaNFzZjn/HIHC99qWN5aXm1GW/0oTX8Ux9szGgfN/xvLPO94xxfjT/msBkfnJdBzDiuPPWhXOjbW8tm6PFbhh3jofHEvANjheuxX/3ax86RJMpACC0Q2gmTXmidCOGyFcI1wZqgJ3yDZZqgp5NiVa4CnSwzBG8vPOGSQE1YJXSzvgsF8rI71stf9xE6lUHArxZp/xM2dXI6JGU7F+tFDfshXNd9Ohp1IdQTFnVaOiEdognCOiXl6Uj9zjlkFNJ5EnxZ1/1WvXRmMt/o/AjfrCiUAL/TViwrrpmCQbgl5DqOgE0hcr3tqI8OlCDvd+rL4k9Q1qbqTDEgUFMUKC4UAdmD1Ed91Ud52lZ9db6sM87ltxQX7aFu3SkDdQDxfQ0tcl51cz89A9pePV2Le0kJcbw6EfK1oeO1hzZyHs+L++XaKEnusWvznHBX+94z4XloLYOFSRl+a2ChDLk2SpZ9G220Ubme+mx43jw7Br1MLA4hTESMY/pjfaH+UtiOEF1joz7QWMGib9yw7o1PfSJDkD5Xnz2aAnV3GKv00eqjXuonPTT5ohr4jAf6fOOn8Uu/T0kwPjJAOcZ5RpJeFx1jwQphJKiCVwjjGR4JsaAUOYMRpSAMDtYwgz/lloLFC2J46mWICh0AZZ7iazNm2PwdJi7efWGWvKy8o3XeHqOPVNqMUARqz0J3xp7xCOMRhcDcBBuDHCMgI5drpTgwJHn2R+Kae1UGuDlCGAnEhbP0hjCeiTIwfLCGCQ0TRic0jOWPF4SCEDoXnjPeTGF4PISsvzycvH9h4kER8O4Lr7WxlBOIl1pqqeJ95W0mFPNiTxRFAERxhhBKkOgD3hDzCyhBvCPCktdaa60il/MQDze9KgMa2mQ2LuwQhgPhJdIpmlHvBQ9hPBNlYOgYgqSzNemc8M8Cxv0vxMqgP63d/GHaQhkUkkdZFCIptE7InQmb4rHDxIBn0P2lAJgPILSVAiiZBQFYiKVwm5EOlxkL6BN5CoTICh0SMstTYC5bHWu6y9Q3FPpUBqTsW2211br2hDA0xHlTLuXijTIQxjtiPQ1eYkEpAiaHhf5ByGMcsNCPCd3GG4O+GGCf2pJVOCEhnQ1LqfeMoGj84D2iHHhGhIwIpRgJS2kYPYSkm2dlEq35WLw+5mrxBJkH18l9AE+J9pFsQviQOXI8ZVbHJ0vpJ4ejfaIMhFElykAIASxevAE33HBDGfS5wU2u4/4PoTsIRhQBz4wQCoke5HGnFITxB2+AeQEy+EnL7d7qC1ZfffVybxMK9g+0leQcvCYy0JlXtcgii5T5E7wmQ+03438NIYQwqrD2WsjHAj7c3lb8ZOGNIhB6gwVU8gm53KViJhxNnjy5xFgTlsL4gWInY84tt9zSnHXWWSVzztZbb13WAsickH9GuKSMRNYssCKyzHlHHnlkCbEUOqc9h0KUgRBCCKOKhe5Yt6TgtUpnwqvCQGERXX755YsSYMVZoURh/MAjIJHIJZdcUlJbm0vIIBD6xnyBbbfdtiykZtG1K6+8skRdDIUoAyGEEEYN8a8yBol9XXPNNaeutxHCQDBPQEiJtIvChghDQ1mBPIwe5grJkuO+rbvuumVCrLkBEgaEvpFSlfeEMrzVVlsVL6u2NK9msEQZCCGEMCqYomaioLAOk64ttBbCYBFXbp6JkAnPlTSUYexj0TACrKQLK6ywQskKFUVgYFAIrLvAoKIfldnuoYce6vp24EQZCCGEMGjEqsqD3d+YVauICguSDSNzBMJQkGbS5MnPfvazRRkQehLGNhQ2yoD5AuZ+1FV4w8DhUeUh4F3Rp5pUP9h3IMpACCGEQWPiHwHfICQ3tiwXPcEz8Pzzz5fQoOSID8MBr4BwIWFCv/nNb7r2Dg7zD4QaEVhNTq4bZddz7tmuCRj9bX/rccq3zwT5viY0+9770noO8x7sG+pk0LHMN77xjZI/XwphmQVjEBg60rDyDlin5c477+zaOzCiDIQQQhgUBKKXXnqp2XnnnZsNNtigOf300/ucyCbzhfUDLCoUwlDxLM0222xlLgqBfSiIZTehlXIhXeliiy1WJiqvv/76zZe//OWy6BNBHxaBmjRpUlkAzbFLLLFE8VDYd+utt/YasuS9IfyfeeaZzeabb17SbMuqVd+hl19+earSMdHgwYG0mGH4sDibeRdRBkIIIYwq3NSs/AsssEBZN+Diiy9uDj300Oaoo44qCwixcrZDYBPeQYgLYah4ljyDnjUL2Q0FQvqf//zn8vdee+1VFID99tuvxLVTYj3XLNsUgr/85S/FE0AZkAnHd7vuumtZNfe8884rQm933gH7KBXSQsqoJYPObrvtVs6x3HLLlVj6iy66qHyOBNNayfjRj35U1rCaY445uvaE4UC4kJC5p556qmvPwMiiY2HU4Bq0WuuOO+5YtrqctudsuD/r3xjI/2Phs/6N1v9H87M/x4zUZ/0bQ/l/IJ/1bwzl/54+JzLCHO6///5mn332KZPYTAQ0sY2l1LwA6UNZrd797ncXQUhogFzismCEMBxQMD1XBx98cLPRRht17R04FNqbb765Oeecc8oaGCa5Uw5kaaEE2C/zjTUOTIKnMKy99tpl4TMrIgvToAR7ttWFR6F9YuyvfvWr5q677mqOOeaYZpNNNilegbrKrlC7r371q+V98v6IqVeO7Fu8FELrKCI8GK37xN9bmZmSQUmpYXgUDed1Tuex/8UXXyyCuDz+deV0YqDf8WgIu1pyySVHLHzH/VGu9smk4eHDc2rhtuOOO66s3TBQogyEUYNb9YILLig5oVlTaLGtwpK/+/q/P5/wd1//j8Yn+nvsYD/R32MH+wl/t/8/2M/6N3o6Dt0d2/5/d59oPba/x6G7/4fjs5XWfe3f9/Rdf49Df84xXL8h4IuzZhX99re/XayrFsghTMj2IvyBwENYoxREGQjDzUgpA4T0imd8//33L2VZLZvw364MOEbYHCHfdyZ2tnvAWG6vvfba5oEHHmguvPDC8jvvC7xLwof23HPPkjqVMuCcvG08FCuttFIR/J944omp+z71qU8VLwSvXPXEOR+BWz1YjC1SRaGhmL/yyislXv/VV18t4/DGG29cymWxP+CAA4pywEvx1re+tZxrOCFurrPOOkUZOeKII4pXJwwP5plQRMlXnoWBEmUgjBosiDpAnTXtVeft8RvqBp1Zd9+N1NZbme3ftf4Pn939Fv29jvZjW/+Hz+7+r3+3/z+QY1u37n5X/+/tu/p//bu7/yfKVqmCtM+BbPU3VWBo/759q8f05/j6fX/PXbfujmVx5P0jvFTsZ4Ek8Ky66qpT3/soA2E4GQ1lgOX8uuuuK1ZXFnnzBAjtFAP53nnDhBL53jhHoKYEt2PBPedmgXeMVWXbOeyww4rwzkLvvL0pA+rI8q/eZ599dlECeODVY7755isKwR577FGEfW1jBVvzerSVtKz77rtvKVOeern/F1988XLMSEEZcE2HHHJI8653vatrbxgq3gHPpzkoreNOf4kyEEYNwh7vgM7Ginkshu309hD39YAP9rcjdV6M1G8xFus1Et9hWvx2OM/r/7q1/9+6tX/Xn//blazW71r/720/ulPG+vu/3x5//PHN008/3fzxj38s+yEMwERhC0OxkrKiRhkIw81oKAPmIxCWJ0+eXMpiVd9pp51KaA8vGIWawsDavf322zerr756EczbIVMRvFngt9lmm24F4hNPPLGE/LDgO643ZUB5wnsoFValdT7jLIXAvIOTTjqpeDTIc+prfo9rocioM6+BCdgHHnhg8853vrMoNpSdkYIyoM48J9oxDA8UvEsvvbQ8F7VvHghRBsKo4oHVAdBgu7OahDBRae1q69/d7UNff/f0Pfo6prvv0dcxPf0tFlm60IMOOqh8EjSERhBOCC8sqMKDhCsIG4oyEIab0VIGyEOs8JRb2+67714EduE3nndx2+YEmF9AqJaJyHPfym233VbO7Xi/N5emHZOLeRm8O315BswhOPfcc8t+4TcUEwq5bEZCR4QieTff9ra3FQ9BVVDOOuusEtbHe8Brt95665WQIUqM93SkoAz8+Mc/brbYYouivIThgcfpjDPOaG688cbX9M/9JdmEQghhFGBcqRuLnM3kvrqxltVNaE3dLMhTNwO9jcW9bmKLWzeCuE3Mb90IAnV7+9vfXjZhCq2byYV1m3766cvGUlg3Fse6WeCmbhCSILWjcglGBDKCjnADgoZUjeYIhTBeIVhbLMs7VtPiem8lwpBSdI011iirwRKm7X/hhRdKfH473ivvmO+F1LUr2eL+TRAGRUJ/0YpjeCDq7/Qj6kS5IOhTYOadd95SJxOYvetQJ/1JxeR+fYqJyOY5OI93tDtPxXDj+kx4lkKVkhWGhpAyz2ZfaZ17I8pACCGEQcMKed999zXvfe97iwCy6aablnUHhCTIJU74CWG8Qgkw343X6/HHHy8C8+yzz9717WshcFO+CdSE+taQucrMM89chHYCOIGYEm3SvXIcrwzeBYo2wZ7CT/gnNAvH430w+ddvQLGQOYiFX3iSeQg8bxtuuGFRxOtE4GqIqPDWeTdNPpab3v/e4VaFYaRg0ODN4WkxYdq1h4FDIaRQmqMirKx9svpAiDIQQghh0BA2hExILSrWeZdddikTE0MYr1QFwDoCrK5W2LYYmP95vqz2imrJr8eaPyD05plnnileuO7CbT7wgQ8UTxlvm/UIKNJCgvzW70499dTyTlGkKQ7CiIQCURooCazq6lPXQ3C+D37wg83DDz9cwm8I184jnImQ2DqhvxXl+51ruPzyy4unYCTDg1oR0mXuwvnnn1+yK2m/Omcp9A/3zXPx3e9+t7n66quLZ0dWq8ESZSCEEMKgEdMsxln+9awqHMY7BCxWe7HtJtJ6rr/4xS8Wq/+XvvSlkuGnWs8dS3g3MV5iDIuTfeELXygLj7HK17V0WiG0USZOOOGEIuyfcsopJSORcqT2JNyLp5dgQzms9b5nRTfh2HwGngXngeOlF6Wk+L16H3744WXND0I3K3xPmDhMCWClX2ihhUqo0Wigzq5XaJXEA+LdKTGh/5irxbPknvNWWftiKEaYTCAOo0omEIfQubD+ZQJxGG6GawIxK78QHKEzNaSmNSZfeBCrPcWANZtV28Rdz7XjHUv4JpwR2IXwdEcN96F0SMdrUrHViAnIFAohO+bxgJeiHudvHgfhPbwAhD/KAsHQ5GdeA+FElAgeBedRHxOO7ZOZyLVUXKcJp7wKJhRT7KuSMVJQVtSLEGvOAKs267Z5DpSDeBX7xr2/++67S1Yq3h0yugXmHnrooTJnpRexvkeiDIRRJcpACJ1LlIEwEgyXMjCtkMHImMhibnV+ikdrfP9IYM6BlZC//vWvl3JN9h+N+T1VGeBlUQcKCTlTqJQJ07wxvBQUKUpX+DtEdQqkEDDZqqSPtU/KZl4hYV9CwwarDCRMKIQQQghhGmECMIu4uQDWMpBpiOdhJKCQC8kxUdk6BLwKyy233JAmnw4WmdMIshQRcyR4ZQi01k0QAqOe6tvJEOzdI94TE70pjjIHCTGjOC611FJFERgqUQZCCCGEEKYR1gfgKWeZF+9/wQUXFOFvJBBqxBovVp+VmTBpDoM0o9MKWZPMk7AQmTAoqxNLRiDtqYnZJkGr92As3uOVGkpGKXS/rCUhOQMPygYbbFDWmLDGxXBlf4oyEEIIIYQwjRAOY7IxAZhVfN999y2pQkcC1njZv04++eTmtNNOKxOdxwLmKlAKdtttt5JlyPyGs88+u6RINZ9BWIw5HZ0AxYeXxHwK1n/pYoVUuWcWkBNKNdwhVFEGQgghhBCmEeYHmOhrMrAJoSb/Wl9gJFCWScQmOdvqomRjAVZu8yXMGRALb4ViE6pNmDXHQFanSy65pHg0TJSeSJ4Cwr4MUCZ0u1aWf3MDhI9tt912zeabb14yWZnf0ToJfLiIMhBCCCGEEAYMoVw4jzj23/72t117Bw9lRaiQ9KwWMZQyU+pUKVB5D5Rz7bXXFi8Ky7lMSDIpjTevgbS01pZ48sknyzyJM844o5k8eXJRAMwR4BlZYoklytoBvDfWZbCYHc/OSBBlIIQQQgghDBhC7TXXXNNcccUVzR133DFVKRiOib8mNUvnKkOO9RuEDMlEZB6BTEjKs1mnQFYkE6KV/8orr5QF2gjV03oCMu+F2H915uGwKJ00svfee+/UuttcD8+AtVpk8BQq5nopAT2lqB1Oklo0jCpJLRpC52JgTmrRMNyM99Si4xkTXDfZZJOSCckkZPHsQlpkB7JWgn2taxe0phYdLLwRhOtHHnmkCNbWUSBoC3niUWBVp0SYgyDsSgiWGHv1sJFt62frhvbPdqrI7LO7TR9nq39TlqwRQdD//ve/XyaGv/jii0VZ4QGxPoAVqRdddNFm1llnHVJ42FBSi0YZCKNKlIEQOpcoA2EkiDIw7SDssnBbUZlgTug290GGJCszG+cJuZXhUAaqoM3iblMHi78JFyJ08wz86Ec/Kpl3CN3mIdQ5Eizv5mTMMMMMJXsThYUSYTE5sfgUBwqM+QutSozyTOyliChThiOhSZ69P/zhD0UpoqBIh/rLX/6yhABZBM7fBHypQCkm2oKS4lNdlGdTthCgnpSQ/hBlYAi4sR4eLqbnn3+++eMf/1hunNUDabiWGPdgiFHzgNF4HUOYtWLe8ssv33WmoWFCjAfTwzKRiTIQQucyFpWB66+/vggxBuuddtqpa2//cD0G/F//+tcl+wsLoPOJ7V1//fW7juodgoxz3HLLLaV/JFwQCggrJk9KHzgcecTbIbiI9SYsSS/JmjoeIZhpN6vX7rzzzkUYCqMHEZIALNMNpcC74PklXFMIpC0V6kKW8rnxxhsPWRnoDhNwyWaUApu/bd4nnwT3qjxUBYL8Vze/t3mn69YqHpOHbRQECo/NddooDuREG8GeDEm4t7H+Uzbqp5Afm7+He5J4lIFB4tK5lyzkQBHQgbuR9ntwXD/NlhvnlFNOaZ5++unmpJNOKg+J3+g8daLDgZy/XpCxkuZrpIgyEELnou8cS8oAax4hxtL+Fn6S450Vsb+5u/3ehL+XX365ZPwQBkDIef/7398cccQRXUf1jhSCUimKsxYjbQwinPifJZKlWwjBQPOJ16HdONYd6m7hKUqBMAXWyvEIQc8kTIY6KTNNNA2jj8XSLBTmefLcgqBM8KUUUGx33XXXZuuttx4RZaAn9DmedVurkmA+Aeu+jXLwl7/8pWztSoH3qF0R8C5WBYBAX4V/ClC70E+Rd9xoEGVgkOhszznnnOIVoLVKZWU5bA/KQw891Nxwww1FEbDfLG/KgIHDTRfzxcVjAPHg/PSnPy0aMW3TjWfl5wbyMhgovCCO9+nB89DMNNNM5TgxZHvuuWfJM7zNNts0s802WzlHT534eCbKQAidy1hSBgx9BHnWTF5foQPGgU9/+tNlECcY6K95jgmYBPXWfSz2xgSpAPX/FkwiIMhyQhhwjcYE5fA66O/1+634jkHKGOP3MocYN4Qd2G98ssAQQYoQQqChPBhD/K+ehHjlqpfvGbJs6uA8xhjx08YiCF+w3/jifhCKlClcwu+1het0vDFL3SkoylS2cgh7yuTJJuz4e1rhWk3KFH7iOgmeYfQRv0/WIVxTZj0/Nso14d8cAnIOGWc0lYGh4h0dL7JYlIFBwkXKIoPTTz+9dHj1pussdYrcvpbLlvZJxy8ujkvMg/yZz3ymWIN0juedd15z3333FZcrD4MBz2pxBpgjjzyyDDhrrbVWme0ulk0YEremcxx44IFliWkvjmPMmtcJt8arTRSiDITQuYwlZUBdjjvuuGJ4IagTioULWdSHUUjfL8PHUUcdVcJECTAEafuOPvro5uKLL24uu+yykkVFX12vyz7HmcjoWEI0YV/YkNDSVtRBasSVV165ueqqq4plmxBP0Afhu8Y0G3ec79JLLy3jDKMUJcUiTTwRvBvGIH2s8tWHUYvV/7DDDitjES666KJiwaVIUHCMcyaAMkL5vbHQmMbCudJKKzWbbrppEfoZrS688MIi9FWDFsFO2kex2NOSzBmYtlAet9xyy/KeVEWVHOSZo1yvt956zdJLL12OHY45A6F7hqIMdHRqUZ2mgYBFvlURgI7QAyvPa2/xmiw/UkRJDcVNaSAQd2pmO4uRAcV5eQxYUwwiVtPzkvgN99Iee+xRQo7E0u2///7lu4moCIQQwljAYMmjKwMKyznDBIsywZx1nJDeF4RxQjxBx9wxoaSs6ART5+dlMAbo380JcO529PPGF2FAp556ajEqCXlRB+NGXRTK+PHss8+W0CNKBSOWsYKiQKExDhHAqtX/mGOOKauWqp/95qRVrOTKckt4bqV6wydNmlQUnO23374oIBZ5cjyPh3bhwaBQCPm44IILSqhRDQsJnYdn03MuRM7zTAngobFy7rnnntsccsghRSENY5uOljiFA7HGe3hbFQF4qCkILCfVStMdOmGdt0kyNtYVnyw2LCg6U+jwTZ5hwaFkGICUb+AwUayGFnGpqVMIIYSRQWgJAZl1mxdWH8wII1yGkUi/3hfGDII6CzvjEcG9hsvo5ykDLOo8y4Ro1vzu4IWw2iiBiUAlFNVEWPtY+40hfus7Y4SJyhQXIaxWJzV/zVgC1+N8jpHRpYY38WpTUHgahMdSIoS4VvyeAYsSYqEnxikWXXnOKUrKN6+uJtYg7KmvsUrGFhlTQmfCE3DllVcWRdQzwVP1la98pTw7nj8yDcU5jG06Whkg5FcL0WAhzOukvQhcNDRh2SReeumlEj9n0IHBwsCgTEpG9UR4kQbj0gkhhDA4TCQUckOQ/drXvtacdtppRaARHiN81ByAwUIhoFxQDvTxDEE+hVJ0B8FcIgru/WWWWaYI8hQUSoA68V4Q1AnyQplkHWKRv+qqq0pYE8WFMG8cq8qNTwYtXm9jj4WYlM+7wPBE6aHIVPzeRrinyPjk5VhooYWKwqEMbcPwZYEpHgzjXFVUKBGhM/GsUA4J/9tuu+3UOS4UVopoGB90tDKgw+b+5MJtVwi4PblbTRSrAn13sPgQ6HXUOub777+/eeqpp8pveQh09NAx64TbiSIQQgijhz6bYCtxhD5ZH88Cz3pOcCfwEr6NAe0eY/11XyFElIFW765z+F13fb0yTLiknFAChACZZCkEyPwxQrwwHEqLcYbQTTkwzgjrsd+8M8Yl9VJ2a7pCBiiebwK7kFXeah4Q3ulWjH9+b5yq9az19h1FwvcSZzzwwANTy+eFMN+iu7EtdAaeNxmCrJhLEaAYhPFHRysDNFcdHPenzpJiUDt7na5JVuYA6HB7wougw11zzTXL5GKTu8RYmmjF3dve6fZGd4NFCCGE4UOMM8FY7LzJweKd62YCJIGYZ4AV3t/Gg9o3E4p5g9sZbN/N0GShJMI1hUBZvMcMVSbmmnBsXKIwELyFHIndN8bUbfLkycV6TyFAqwIjPIOlnwIgcxKvh7/b1xTgPaBIuGbX6HpqO/F6qw9PgnkEyqvjnEnUW2yxxWtCjkJn4Xl1/1s9TWH80dHKQF0MgyIgow+LPotRnfxrshYLT40D7Q6dpA5bFgbeAR23gYQLVdiQc/eGjlsZOl+dsC2EEMLIIJsbi7v4Zp5bAj9qXyzOmRAsyw4hWR/O06tvNzaw1Ff8tlr3B6MQ+K0sPQcccEAZL3ipnYfCYTxiqFIH8wPE65vnoF6EdiE6hHvKQZ2b1h0f+MAHSvpRmQHNFxBGJI67FfMezDFwPbfddlsJGeLpNlGZgsT6T6kQEkuJ4i3QLgxgPBUZt0IY33S0MsBqIguEVGQ6M52qTEAUA1YUmYRkY9B59gQri3hPlhkxnDJHSCXKHStmtK+JMwYgcXUmHvuNOrAUGSRCCCEML/pXsfNLLrlkEbRbIQxTEgi6BF+x9fp3c8Gk52T0YQFlwQch2f8Ed6mke/Mid4e+XwpSqUdlG5IaU8rV3XffvWTskY5R+RQBxisZ56RlNrlYlhYpqYVl9BamQxlwDMXBp3GpNYwJrLuyC5k8fPXVV5dQJddM6FcH49ikSZOK0iNrkvppD+Oma2g/XwhhfPG6Q6fQ9fc/4WU3KWQgoS7jDdkZaofOA+DT/6z9JnPVtKOsQiwj4jr9r/P1HSHeb2wGEvtZXXTw1fJEsDcZy2+FFVEAnK/uM9lLZ+ocfsuF6+9Wd+9Egefl7LPPLrGx43XFyxDC4GD19v7rG1m7pwVCc/T1sv20ZgCqEHz18cI/jX1i7vXr+vIqlAvZkVXH+EGQ1q/7nkDtUx9eY6dds/69dV/FbykkytLfq4vxQJkUEcK58ljua8gPAVz9zG8w/rgOHmoYN5yrNWxH3R1PgTGx09jmOPUyZhmH1M256zw6Aj4lwroHrsn1GRcdb/O9Y7WBcFt1npZoE89VDa0KYxdGU0ZUc13C8MLLePnllze9iPU90tGLjoXRJ4uOhdC5EEi9/2Nh0bEwcRBW5bnKomNjnyw6NnIINcyiYyGEEEIIIYQBEWUghBBCCCGEDiXKQAghhBBCCB1KlIEQQgghhDDmMM/Iuk+ya5lr+NJLL3V90z8kcJHlS/pda2dIEyw9sJXHraExVMTnm8CuXlLyjleiDIQQQgghhDGHdLay5FjoTrpb618MZIKs7FjStksVbH0Oa21YRVtWo4GmAu4O6Xfriua//OUvu/YOjMFM+B1uogyEEEIIIYQxhzU/rJEhFSnB28J/f/7zn7u+/buwz+LPOl+p+xzHWi/LztNPP12E9tY1nBxDQZCNymdP6ztV63891ubc6uNviwHeeeedZUFDZTveZ+u5HV/XJ/E7ZVN0fOdT2TbH1TLsd+xoEGUghBBCCCGMOSgDFvuz5oWFAgnUFg2s3HPPPc2pp57aXHnllV17/rHPIq48CjwBp512WnPeeec13/rWt8oxzjN58uSymJ50nNtvv33z7W9/+zWKRoUSccUVVzSf//znmzXXXLNZY401mqOOOqqsvm3BQSuIWzTwmGOOKYrHr3/96/K5xRZblFSqm2yySfmOIkO4v/fee8vifXvvvXc558knn1wWQ3Suo48+uvzGQoT7779/c//994+KQhBlIIw5aMdevttvv73XZfZDCCGE/mBcES9OUPzpT3/atTeMZVj1hd6woltMb4klliiL3gkVqrCgE77NK6jYR4mwVhYlwgJ5FAmL0jkP4Zrgb6E9C6AS8FnoKR3dhfp84xvfaH7wgx80H//4x8tK49tuu205x6uvvloW/3NeCwCuvPLKZQ0FCkddQXybbbYpi/05vzCnavF//vnnS5iSspdbbrlSf0rCz372s7IGC+XEIoQUDl6NkSbKQBgzeLksSnbjjTcWTfmcc85Jpx1CCGHQGFdeeeWV5tZbb21OOumkMq68/PLLXd+GsQxhW+jN3HPPXVbhnmeeecqK2uYQWEm8r1h7K2PPNddcZaVwvyXMW/0YlAr7COqEcauLO2+rUlGhbDBMOt8iiyzSrLLKKs2nP/3pogBQNOaff/7mve99b1n4zurezmNugoVVV1111XK8Fb09gxTSWm91WWmllZoFF1ywXCd5x8rjfmNzXobRJ554ohw/kkQZCNMULwW3nM6am+3qq68uHfZxxx1XNGcvfAghhNBfasy2sIxHH320ufbaa4uByaq3BCsCWRjbuIcy9Aidectb3tI8+eSTRchmTSc4kxkGGz7zute9rgj/M888c/O2t72tefOb31y8BKz3npt2eBMI+ZRIE4VlI7JvjjnmKMpJKzwSFIePfOQjzYwzzli+V47jCfu///3vi5eKgjLLLLMUzwLFxLk9l7wZPAE8Auri+NFQXqMMhGmGF5nLjPvt7LPPLrF7hx56aHHJvetd72q23nrr8rKEEEII/cG4QqgjNF544YXNdtttNzX2mtAnfnvOOefsOnraQdjt1K0/uI+E4Ntuu6254IILinyw4YYbNhdffHFRBgjlwm0GA4Hbs/D617++a8/f99UJvu0stdRSxbpPcWCs3HLLLct8BOFA7b9h3BTW5FjnBOWDUiDsh8xDyH/jG99YlJwKwycl4Mwzzyznt335y18uikc9z0gSZSBME7ww4vP222+/EjPnZdd5V62c+8wkmplmmqn8H0IIIfQGIYxFlVFJ/DbBSkpJ4wohlIBmPyNTzd7S00YYbd+cp3WTYaZ9U4f2zXg30I2g274RGNs3ik/rRtjsbhN/376xRPe1sUy3bsJo2jchMe2b8JbuNu3WH3gB1Ptzn/tckRXE09uEEW+22WYle482YVUnLLcqGdqvv+X0B8K8UB4Tfi+//PLm/PPPL9dNIeF9aoWSQdDXVq3Zg2qdeASqN6FVyOd5MCfiwAMPbG6++eay3XLLLcWrtccee3QdNXL8y5QG7FFNU9GbbrqpWW211br2hDA0zAkQV7fBBhuUl0X+3/oy1RfHy811Jt6OJh1CmBgYbiz2I7OGSXIhDAeERuPKJz7xiSKIyR7D4wzPnM24whIrRSWloD+0W2SdZyBW2npsFbP6+1vH1d9gIGW2014H9Od8g/1dT9Tf3n333c3GG29cQrZ645JLLmleeOGFMiF3880379r7d0HfOQ455JDmjDPOKKE37jch/Itf/GIRuGX6MUF48cUXL54gHgWx+WRZgr3Fy2Qk2nHHHZuFFlqoZPJp39eKWH8C/bzzzlti+ilJe+65ZzFaOqffX3bZZcW4aR4BQV7mIhOGeaF4MsjS119/fcl6JOTpoYceKr/fa6+9Shk8ICa3mxvh3J5j9aFAOc78hr6QwUhmpNZ71l+iDIRRpSoDXGA6cJo+yw0oAx5HL6uHX2otL0QIYWLg/TbIEwSiDIThoioDwjkI/Cy23/nOd4oCwMpvbPE3JWC99dYrxqb+0F/hd7DHjfT5e6Kv43r6fjjOb7Ev0QA9KQP6CAI9wdo922ijjYpVvhXZhA477LDiNRCbL7T4ueeea1ZcccWpyqC4fZmEpO7cd999i9dm0UUXLcK68J6BKAM33HBDmcPout7znveU54lAr16f/exny/yFww8/vJyfvOwaeKUI8EKeCfS8JeYlSDcqZE0dW5UBCgNPgHL8TgiTaIn3ve99zWKLLVYUkb6IMhDGDVUZ4Gp7xzveUayEXIDSadHwaf1eAtYAncaHP/zhKAQhTBAMot7/HXbYIcpAGDaqMkDoIzQZVygEssDwPAuJYWQiyMkXz4PQGq8dRg/hv8b33pQB4U+8hzL08CKQFVqplnb3VAQBYZxlXdgQ4dvvKBIm7or1J2TfcccdRfgm6FMQeY4oEyz3v/jFL4qA3rqvFUL5XXfdVY5RN7JxVQQI7mQX3ghC/9prr12yEwlXI5x79ngt5ptvvnLt6kCZsVAZL4DUphXKiHIoGuooU5EyZC5qb4PuiDIQxg1VGaCFe4m53igCJgVxn3mpvQTi6uTy5R40Cz+EMP6JMhBGgqoMHHzwwcWSbAwRhsqgZNEpISPGGsj7PmnSpOZjH/tY+T+MLn0pA2HwDEUZyATiME2h2XOD6aB5C6y+J86Phn3WWWeVPMMhhBBCf2EVrlZXsdsywCy//PIlVESYmsmpIYR/EGUgTFN4n4QFcZ2xFvBCSQN3/PHHl86bhyCEEELoL8YVhiZzA8SUC9vYfffdm9NOO62EgQgjCSH8g4QJhVGlPUyoO4QSiLMTUycer32yl4lCtp///OfFAlQRlydlnN+YqNP6XW8ITZLWS3zeaGNRFdcprtV1e9csWiJtGTe2hVG8h7578cUXS/Ylk5TMpXC9Xl9xsXV+hUlKfo/6avs9XKPl0a2E+KY3vansg3MrX0xifybW8dbUDFAmaPW3ncPIIF4V4mP7wpwc987kNe5kSvhokjChMBK0hwl1h2dPmk9x2fpK8wdGG/23kCXjm37Zpl/WJ1vAaiAhsa7Huy9NpcWtxguMfa7T+g9heHnwwQebffbZpyzgOlAyiocxR3XxygzRnXBqYo7FZCxUJkbOJpWXtF1WMDaRyCSf/sbNSedF0B4M/S2jJ3TmBgiT2rzEFAOTlMyfkCFB7CtcjxddnKUJRpQFGNwoFFKquQ6TsSnw2sEELKtuipm1T15mE6G4yivOb2BybkpRf6DQ3X777WWSngEpTFssSmPrD/KQE4aOPPLIokyH0CkYVxhQFllkkWmiCECfKR3m5MmTy7glZz7DmFzytX+ucxt6w7jjXTYRdbBj17SC4qP9+3Odof8Yy02KZwwdDFEGwrhESNFuu+1WOlCbTtZqfToZArBJydKT6TR1OiyideEW+wmxNvulDSNMEZK9UATv1o7KcXWfv/3eeQjiPv3OPufydy3L91WY74lPfepTzXHHHVcWXavWenmMhUcR2qqw7XoIb1zflmdnCQNPAOFcBgUp8yhIcjDzFMirvOmmm5bBxz4KxzLLLPOarATqKAUfRcJ5emozx9W6tON41916jN/X9qltVBUnbeI7Zfms5TimJ/y2trF7YXN8Lc/3tTzfDcf5aht0dz7H+b+W57h6r/3W3/W6bOpmf/3euet3fu/71t/Xa6lbvS/tOE56XvdPeY6x1Wurv2+9tnZqXWsZjvN3/a3v1Lf13M6n7NYyav1DGG08l6he0LEMb6qxSnYbY48UmtbTMQbooxln0N7H+KzvqHdNf81wJBVl7Zva+13vZ0/v/bSCMe+JJ56YOoaF4cG9ZhikXA6GKANhQsDqIx3YAgssUFKRsrB4OQjLPAXWNZDFgAvZQiBSkwmvsdqfJcDPOeec0kFL6SV8iYClM4Vj7WN19/c111xTshwdcMABzS677FI6cJYdZZx66qlltUDl+F4+44EKSd0pA8o1EJhc7Zy1I5VL2ToN0qVxNw8EAwdvgHR8BqbTTz+9eFxYnAiXrk2bWbCFa9fgo03b0cZf+cpXSltygRuseGq0gzRrFBJp1+Rydj0UL22jzQ2EMntoO0qRQa0O7K24Xou6yNG8xhprlBAXba3zc06hS1YdVVffuT+nnHJKGUS7Gwydj8ek9XziiV1j/V4bCGfxnRUvfe/61Y81TvnyZVvR1CIxPDzaVPtZUGbXXXcta2X4resXvuUeynKifVy3+GXlC2/wG9/zFtVr8Z3fW/HS89qOiZFSKLIwqgOFkdeIMrj99tuX+rkH5uC4N+14Nl2ne3XRRReV50kbyJFt8qXfOo/nQ5uY2G+iv3dFncVhy+Otju6r9u4L1tmqgIQwVDxL3jnGFMaS8QLFhSXXmKUvMEdO/+sd1o/o1/WRa6211tR+QNY9/YD3lJfYe++91Q/oO7zL+gH9ir5bH+S9H0vvmhBefejLL7/ctScMB54bz8Zgs2RFGQgTAp0L6zmh2d88BGIpWU50kHPNNVez9dZbN6uuumrpZHWilAYTy1jVLephwRK/IQwRfKoQSUCt+3S4chKzxoi3dj5KiLJZ7Fnd5TXWsauH8Bwd+0Aw72GmmWYqQmEVIF0X5UQ9WX4IfDr4VmWgP3mIW6FAUTqEY7kGXgPncT7eldlnn70I1YRhlivKguusuD5tIzvHL3/5y+bjH/94OZ924KlxDYR8A5n2cy/EqxMYKSH+F+drkPNbiph2rUpYKxQxq1FaMIZwagVrvxdKpW2UadDT9jvttFPxuBC65Y3WXu04n+Nbz+c5YbWi3BioKBPq5RoWXnjhUjeKpWtwfY4hsO+8887lHonTZPHSfscee2yJS7b6pWfBvZLVxP2kzJnz4nsL3HguCQV+59nybDqfZ1Ncrd9rG/e6/VmiHHK7zz333MUzJLxOGJlwM+d3bYR1dadstGfnosDY711wLvdU+IK2IVD4vXkr2kUoGcHLs0dZVmfPhnkuBJtHH320X9m/TN50j11PCEPFs6QP0B+/9a1v7do7PqihS+YLzD///GVlW30joU5/Ym4Pg4L30PusD/Qeevd4GAh+3lt56L1PDF3GM/22fldfq88aS1n59FX6GX1aGD6MH94D4/lgiDIQxiWETwIJAdVGeBWHySNguXnpSglOrP4ELEI7ocXGgqRTJSxafIYAS+gj8OmYe3M167wJRBQFL50FQQhL9ungnE/HzJNgUhchtTvLdG8Q6AjS6skCzW1MCCdQGjAoC65J52/QIJwqd6CeAddiRU6Lp7DW1HMr0zm1h/bSdqxXFm5hfXCtUC9zBxxvMKNMqLMBjADuN35PqKVYuBe8A2DBM6BRBlZYYYVybLWGdWfFcm2ukbBvkGMtM9AZ5AjY2sK9NzGNIuC4JZdcstxP19lOPZ9rq+cjVDifDpXHQRuYrM267joMuurse0qGcxCYfe8aKBbOIW2h7w3WhGWeA8roVVddVerJuu6+UTy1se89L7KeVMWPpdO1aFPXQglUXvuzKT6UcM2b5LrVj6JTn0/1VgcCgjpp3woFjSKgzhRhg7Tnyn7PRRX0XZvnj+XfM64OPt1Tz7rN/SfE9CXg+63feXZcZwhDhZGG8ut90ZePRygxDFjecX2D/tMY4L2v3kP9if7B2KWf9e57741d+nAGG3/rb/3Gpz6Fh9k5xwrVcGU80GcM1FgW/hnjMoMPmcaYNhiiDIRxCeukTk64hU2svAnE0pTKUkKgZmUh3HhBdK6stjofwqaNYEqoGSgEGkKXFQUJTSDc6uDMZfCdvwmi6jDQMpzLwEC4pEwQUAlPro3iQYgl+BLsCF+uhbCp3KGiXQlpBhEKlWtgcXN+ngpWc94AZSrffAQDmA5e3QiWOnmDlXP525wEE8EJozXTke8pH35LWFd3A7nfdDc4OL+NBdvAr47uQw0rUlfnco8Jw5RF98JgSehup57Pd63n85xUhUAbUOjUlefESpiEdgOre8Qi7zlT/yp0O9512u84HgDPGQWK0uR5cAzhXBms+CYBut9WTvU7A7p6uPesgNrdwO6Y/oRBUGS0N6Fb3dSfBVFbOZf28jflzjskC5HzgyLg3lImeD54BByrPT1zhBHt5Npr2xBCCC7uvXr3BcHFc8T7UBXLEAaD51QfyADhGfeOjFe8q/o376d3iqGEsUn/oY8yBngXjWft6Bf0n8JT9SH6Gv2z/bXPHivol/Wt+np9EONI+oHB4VnRXzPq6LsZhhitBkOUgTAuIZwJz7j11lvLJnaZ5YRAykqpE2QxYj3mbhUbLlzCZtIWoYz1tb+CeutxOmqWnFaLM0Gd4FwhMNm6O799Oj8DWU/lE8BdI4GQQO38BDBCM2GKwOo7HSn3sQGgP4JiXxg0tAslp57PdRKaDVTaswqHOiDCt+v0fb0ugxUh97DDDivtzcUt3r41xMg52632ztOTF4VgKhzJ3AUTx91v7aI+BF8doPhYVvmDDjqohAoJy3Gfuztnb+cj0GqD1nusLVyj++A7aI+KZ8JGkaHwsNKYD+H6KacyO6mnjpsSxNLHC6NdLLhnToGQJ/dR6BGlgxJlHob2M7+BctHT89IKoaG2b8W1qBuB3afnRjiS58gzVc/rnaEwK6++L0KVtI3r9z0oAdqiojzn6Kt+7rF7RUDx7Lg/IQwW75Pn1bwZ/SKjwHjEe6Pf8V4wJOlvKOq83rV/4v0WWtPdO6aP0y8xiOl3/cacHt5I/cFYg6LDG6z/q4pOX31HeC3ai3GG8cl8Os8Ao9RgiTIQJgTCHAg8rKw0ZC+GTtXGuiJ2v25iKHWsXLDtAjRhpVVAdR4vHAGqtbNy3GAhcNYsEKwjyqiWGwImIYsywILiGIIY4YvQ79Ogxy1IGSCc8VC01nkoEPgoAgT6aqEn4Bt0bazv6qBdheGIUdWZs2D7jfZk9RY6Y1Kx9haDzgJk4mm1QA8Unh8DJcHZhDmZNwwoVeBVZwK0SXUmdDuOZUxmBYJvO1a3bj8fT4HzuQfO595Ui1W1yPE0uf46+FbcUxZKx7G0S19oEm595ly/OQnCjgjf7i1lViducrBzCrliBdSGXL0UiIsvvrjMKyCcE57VqS/cG/VWp4rBtiqxnl3XaLVv1lThP84NyggvEAWk1t1mAjHlxvdDhcC2xBJLlHpIoRvCYCEcCxf1vjCeeL7HIzx2wn+MMTx6+gEKDuVdogJ9hPdPv9Id+jhZ9fQx2kJ/aVKx+Vj67LEGw5bwQ0YRiSPMweorxDC8Fv27+WcMWjwCQsOEeg6WKANhQiBMgZBMyJFjn1DGbVpj7wlDhGmCmnAHQna19FYN20aoZsEldPkNa+xgMgL1BqGagC8rEUGadVYZFADCFqHNp/qqgwFPvfyvvjUbg3AQ9RyqMkD41F6Ef4K8cljYtZMOh+Khfly7vq9Cpf8pBOLeuaUNXoRp/xuc1FGYDuHPNYrBr5blgSKkxrkJqsJTDJ6sygZLlkGCtMHQvSZouwbPAoG/KjWttJ5PaIHzaeuq8Ki3a3KcOrPST548uQgeOl7PCmWDh4RiwNvE0u55Ed7FC+Jeed5qCA3Lv08hDZQDyoVj3T/3W1trJ9ZAz2etHyHH72zt1+Le1ee3KpQGBAOrMJyqtLh/2sZ1+Y37J+aYJcnflBLtSRBRb7+poUbqwfpUFZWh4vmhoAuHMoFZu2mLEAYCBVbKZO8npV6/MFxGkdHCuKL/YjBhIDJ3yXXoi/QHxjD9mT6Hx1E/5V1H7bdtvAr6afsI2t5z77E+TPsM5/g1HBh79X0yljHCCPWl8OizQt8YJ4w5DEbGGCGq1Zg1WF53qBx2PcDdxGXtYQxhOCAkslroBAhsg4FFnIVWp+kFgE6Q8Ec4EzMurp7gquMkaNRJnQRrgp3OiDCkwyREqpdzEASdgxCpcyXUCSlhPWXFIDjyPLDiiCGvoRP+15H1tI8AVNExK8851Ul91I8QR0iyErJ66eCF26gHi7LVgwluzmXg8Bv1kf6R4NbqrTCYsBKxEnt/dRjdQVgkZBJyCbKEUp20QcR+Ai/FRRtoa8I/BYRg7zpZd7SZ67RPmJbNNWlH1+d+uVb3Qz1cO+HUoEXYZYU3ILbua7fwuW8EVEKuY7WJTRtpT9fOO0GBURflu/cs0K6HINyK87lH3Z1PG1B0XLNjtLPjKQZc24Rz12Bgts+8AJl03AMCLuHfM6K+FDbt51nQ1izxfkcJ9Dvf+7RPu3kmtb36+861KF+9tLX20e6tUDJcg/Mr2/Ph/dD27om6E+SF0amf+0yIkvLVs+F+OsbvhNj5373zW/U2b8BvPGs2iorv1dU77Drb9/UFIYfgps1rqJnnwDbeBLowetT+yjPJAKBvZ3zgGdZnjnX0s95pz70+wnXwZntX9fvGRROhGSX0Ld5rSoHf1DHJ++kYHkb9qvfU+2M81JdQDvSD3nl9oL6EMmHz3o0V9GMMYMYF/ZXrdX0MHurp+/QF/4DRx3NhnNR/67M981LIegc8P0MhykAYVYZDGSA4eTEIRq3Ppg5ER6JjdW6dn7hsLwyBlGCjw7GPu1WH6jsWFx2qQYawRBCsVuEqYPkUhqLzqhZpwlkV2gmVPe1rH6gIXSw3hCfl6LQJWeY12F8VB0JujamWGYbnowr82lEZhDfZaNottr5Tf8I36656d4fO1qBS60EYkx2G98HAos1ch/NwOWvTev3am3BcBXwKiA6J0On+VEWgxqU7rzYnYBvYCOk21gwDXN3n3rVbOCh6zqNOjnXdjlOmY5Vp4DRouhadpnvJYuKaWhUlOJ8Bs56PgF/P5145n3YjtIvdNcBShrhiXbdNG7BsG2xdlxAo7UGR8b9Om5Cs3u6prEC8JH6rDQgB6qudKAKyAZlEbFCvCgSFwLEyZFFs/LYVdVV/SqvrMR+hThamyKm7Z5sS5/yeZffPO+S5dJ8Nuo73vHgvPIOuzVwbioh7y3vh+ilVngftSXl1PX7bvq8/EAI8954RbUCp8J55duDZdM72exc6C/2g51H/4Fn2Xgn19Fx6Xr3j7cr+WIWBQX+gr9JPeb88994b1yH00Tutz7Lf8Y5zrQxC+lft4HvvpPfYu+Md0Td5573HymCk0efo17WP99L7Ppbwjhs/ap+jv3UN1QOqb1L3Tu4D9IfaxrNPAeCB90wYiydNmlQUgXbj2WD4lykF9Thrww0QckHYCGE48KITTEx0IlyHEDobQ5D4ZmFzhAPrKhB8KOW8Le2ekNA5eDYowwRcSgCPKGFIXLx5LZTvMDFgCGD8kPjB/DLGC8ZohjAGHwavTvIUePYpwgx7hH9tIpyT3GQdCca1diPgUOhTGWB9pYWGMBywIrJkCM2JMhBCAM8CKyhPCuugEAqeM9ZRA2LoXHjxeDZ524QQUgB4hHnQxotHIPQP8oGQRP0Ar6sQQl4CXkzeUR5UXuaJjj6P18f8MuFwvAK8vgypvMe8KbwBw+kx6VUZkMliIsMaxU0vvtwEpInGVVddVQZUaRbHGkIquLlCCAFc4ZQCIU8+hWwRDlgMRxJx1cKpWCXNCyJ8dnJYQl/ILCXE7YADDujaM3K4D8JmCIC8RBQA4S4MlJ1kJe4kiKTefQIw+cx7SUGwUQiFf5qbRCH0bEyUd5XSI7yLIqQ/4g0Q6kURZpSnBAhlNQ+whhIPJ70qAxMVA4yHbI899iidGnfUscceOzWTxkRBKjJhOZSCEEII/4yxQIgSK6S1KsTgxhveM1IGS9krZCeEkYRnsM7tslEShMZQDiV6MNeAlZyCaD7FePIaCP8xAZ7xwyYUjhFEWJw5b4wSFB5KgJBJ1zuS9DqBeKJiAt0555xT3FAm47AwiEnjIZhI8aliK13fuuuu27UnhBBChddBalMGE8KGzC0mpRp44x3oHpmzKFAmL4YwkpDHCPmSItQECN5RVnPZ42QhkgDEBGuJFMh2NsJ0awrWafkus7czQBPy1VOdeT14PIREMkLIKkUeVXfWfyHUm2yySUnaQNEZjXC4jvMM6PzNrhem4pNrRkNzPVnJVnaLiTIIxDMQQgg9Y/DlDbAatThdcbgWQOIdyMTl7olnIExrCPoEa6vgU05rilVhNUKIzC1hVRftwXvAys7oS7Zr3dD+ida/u6NVbPZ3/b/+3bpRBKRMJYvJHiX7XE3FzANJ4Je9zsrs6tqeSW+06DhlgAIgQ9Lxxx9fNEoDgNAgriZOkpVWWmnCxLJHGQghhO5hGKIEWClauKixgGHIis+ydRAqwj8TZSBMa4it3ldeAnONbDwDFAIynth74UUm4VIaxN2T62wMvv6X2pgHUAw+oZwhwPtvYwggF7bOS9FfKJMiIsRHmcoXyiR8SfkiMYT6kC15AIT/+JsyomypXaU2J/SbB6AuhH+bECfl9qWIjBQdpQy4mTqwffbZp7iEuZJcvsZ3I6Szs0S/XL8TgSgDIYTwzxgLDOTW9rA4nwHcWCCkwBoWhx9+eJlMPBIT9cY7UQbCWISQztNHKLeJx/c/QZ3ATt4jxLPU101kSN0I+jZ9g01/0CoekxPrRknQV9goDXXTXxDobRQAGyWDskHpoHzYTIb3/7TyAnRHRykDtEWC8cEHHzw1nqxSJ6WYSGyJ/p4WaRpPRBkIIYR/hpBg5eZddtmluO4N/hUDuuQSYuJbFzUMfyfKQBhPeLfrnAJbVRDE8FfPQquiQDakHLQqBa1KQBX8q8BfvQnkR0J/q+BP6Lc5bqzTMcqAy7z55pubc889t8SZcdG4+fbr/N1oygJFgLVo6aWX7vrl+CXKQAghvBZ9vsl7rP/SZHLtswjazyhkwDeJeMsttyyrbreGCoQoA6Gz0C+QDyc6HdPL0fasYGjp+znnnLNYfjbeeONmgw02aLbeeutmq622KjPVuYwdF0IIYeLB+ie2+MorryzhAyx4Jh4yCsljz3VvQqKJib4PIXQunaAIoGOUAR29GFApRU0a4wGQsgpSN2200UYlxZzlni11HkIIYeJhpeP77ruvuPo33HDD5oILLijhQtIX3nXXXWUxLdnlrJTuuBBCmOh0jDJAu5ttttmaxRZbrHxOP/30xSUMsV8UAxPHrDVgxncIIYSJBw8wY5CQ0e23374s8W8fj4CUhOuss05zxBFHFO8xpSCEECY6HRUMaVa3iR29YUCgHIQQQph4SCloHQHeYMYfhqEKo5FFf1ZcccVmhRVWKH+HEMJEp6NnRpkYgk6JCQshhBBCCKGVjlYGQgghhBBC6GTiGZhCPAMhhBBCCKETiWdgClEGQgghhBBCJxLPQAghhBBCCB1KlIEpxDMQQgghhBA6kYQJhRBCCCGE0KHEMzCFeAZCCCGEEEInEs9ACCGEEEIIHUo8A1OIZyCEEEIIIXQi8QyEEEIIIYTQocQzMIV4BkIIIYQQQicSZSCEEEIIIYQOJWFCU4hnIIQQQhhdHn300eaEE05ojjvuuOa3v/1t87//+79d3/TN//3f/zU/+clPmueff75rT9NcdNFFzaWXXlrONVw88cQTzfnnn99885vfbP785z937Q1hYhHPQAghhBBGFeMvZeDuu+8uAv3TTz89IGH7j3/8Y/Pcc8813/jGN7r2NM3DDz9c/v/v//7vrj1DI6HEoVOIZyCEEEIIowYh+/e//32x7M8444zNggsu2Nxxxx3Nf/3Xf3Ud0TR/+MMfmscff7wI/bwArfv89tlnny2KxAMPPNC8+OKLzf/8z/+UY3z+4he/aL71rW8Vq/73vve9cjyc52c/+1nz7W9/uygfzvHyyy8XJUSdeBReeuml5kc/+lH5/auvvtq8613vahZaaKHmAx/4QPP617++HOOcfm+jkPz6179u/va3v5XzU0Sc45lnnimbv//zP/9z6jWEMBaJMjCFaP0hhBDC6EAwfuqpp5o3v/nNzeKLL9589KMfbb7+9a8XoblCGF9++eWLQF0F/brvscceay644IISFnTnnXc2X/jCF5pf/epX5RjC/nXXXddsttlmzeqrr9588YtfLCE+hH1C/+WXX97suuuuzcYbb9xsvfXWzZFHHlmE/7/+9a/Nvffe2xx88MHNySefXL6/8MILmyuuuKL5yle+0tx///1F0Kd8HHbYYc2GG25Ytm222aYoMhQO5//Od77THHDAAc2kSZOazTffvDn00ENfcw0hjEUSJjSFKAMhhBDC6MCKfs899zTvfve7i9X9Pe95TzPddNM1P/jBD5rf/e53XUf1zJve9KZmtdVWa9ZZZ51mpZVWKsL6TDPNVL4jlL/zne8sQjxhnrfhwQcfLN4CigNhfoMNNmiuvPLKIqj/5S9/aa655priIfjXf/3X5k9/+lOx5jvnVltt1XzoQx8q5yUv8FIQ/JXl/FdffXVROigJr7zySvP973+/+dKXvtTMM888zbHHHtucdtppzSc/+cnmkEMOKeXHOxDGKvEMhBBCCGFUMEmYB+CFF14oysBss81WQnEWXXTRYvknNPcFoZ3AP8MMMzTTTz99Edjf8IY3lO/e+973lrCjueaaq5zzLW95S1EQhPyYo/D+97+/+fjHP9587GMfa+add96ijAj3US7DoONnn332coxzvfGNbyznhXIpBLwQvACzzjprs8IKKzRLLbVUUWiUwQuw5JJLNv/+7/8+tR4UHIpOq+cjhLFEPANTiGcghBBCGHlY0U0YJhyb8HvVVVeVsB7zB8wBIFDXsXkwUBA+/OEPl3H97W9/ewlFYpEX68/6/8EPfrAoEq973euat771rUVYpwhUQd3xH/nIR4r3oVU28DfFYJFFFmne8Y53NLfffnvxPDz55JPlXJQRcwf+4z/+o+y74YYbiufAhGYhSK5vuCY2hzDcxDMQQgghhFHhN7/5TQnXIYizogvXufXWW0uYjfCcn/70p1MnErcK4xSEuvWGSb7/9m//1vXfP87BIyFun9BOeAdLv/8J6zWtaVUSfNeOY9daa61m2WWXLd6Bm266qZk8eXKZ7/DDH/6whBwpQyjR9ddfXzYTnnkQeBy6O2cIY4F4BqbQ2uGEEMJEhHWUwDOYuOV2IczfztOXYDZQah3DxIUyYKLuXnvtVTwCd911V9koBMstt1zzy1/+sngNjMsE8/qMeTYI2+YbDOa5I8gLKeIBqJN5KQFCiHgQWsOBekK55gt87nOfK5OMCfvLLLNM89BDD5VJzTwOQp/OOOOMqcoAD4HrXHPNNUvmpBDGIlEGQghhgkMAOuaYY8pkRwsoDRRWW+kYCXJg+bRYFMvocMEiLEPM3nvv3bUnTDQI3izorOpCeQjnFYK/EBzPgfkEhHchP7IDeX79jpW9Gu8cT3E04bc/Y7kJyibzOkfNHiSsR7iPUCEx/71BGfnud79bJgXfeOONRSnhgZh55plLaJHNHAMC/yOPPFLqbV6BeRCHH354ua4oumGsEp/VFOIZCCFMZAgk4pVNfhSnTRAaiDHEBEsCTlUGTIgk3NT/hwpB621ve1sz33zzlRCMMDH58Y9/XFJvzj333EURENJTIdybdOuZcgxrvdSgt912W8nsQwAXj2+/MZvQLZxHitL9999/amrRnmC1Z8U3H4AX4sADD2zOOuusItTLSGQuQW8ok3ICnox99923nMPfc8wxR5ksbCLzFltsUbwEsgkddNBBZUVkXgfKTWSNMFZ53aFya3UoBkVuR/F8rBQTDXGMJk2tu+66XXtCCJ2INIiEbQIYYUumFEIVYYx1lCVWvDZhh+DSus/fX/3qV4tFlQLhGGEcLJ/CLVhtKQoWfhIT7bzQ90jp6HcWd2LZZUkVO00xIfDpg02sNKEU+mPWY5lexI1TQhzjU3y5svze5nvnlSHG9+rkvMI4Bip0Ed6cXyrJ0Dvam5dIHv2BQhklfFMGpN9sDc1xzwj37nHN+PO+972v3GfHsboTtmeZZZaSrYclv95n3y+88MJFqXSM58cEYDiffTIHOYf96sBK732QTUg2IBmNPH+erTnnnLNY/AnwnnH1shYCOcE74/f2e56d0++VaWKx+ilTXSg4vl9iiSWKnNE6lyGEscS/TOncOzZW5vjjjy8v7ac+9aliMZho7LfffiXvsWwNIYTOg0BCaLEwEos7QUV8M0FqvfXWK58EaeE+LP0srCyk9rHEEvjnn3/+ogxYdXWxxRYrQqB+xUJOhDsCFUHf3/K+s+YKyZAZhgWWcA8CFevp+uuvX+ok04r87lWIIzAJ3yCYX3vttUXQd4xPQhUBTMpHOeIJkuog5EkdfUfI8/2WW25ZFAKCXH8R+nHJJZcUpSb0Diu9GHiLcIUQJgYdP2cgbrsQwkSF0E1oJmyz6LOOEqRvueWWqUJ6b+gfV1lllRLLbXKnSZ8MJ7wMLPHipPfZZ5/m5ptvLtZRCgNFQjiIlVyVZ67COeecU5QEK7eKuya8s+LbGGOsAksZqOibKRKstxQZGWekcYRwEGWbhMr7ueeeezYXX3xxs9FGG5X9BNX+LFwVQgjh72TOwBSiEIQQJiIEfoI6BeADH/hAUQiETLDAE6opC4PF+YR7CKfQh7LKC6H4+c9/XrwMcreLARfyIXzC4lLCLExGFkIEIUWf+cxnpoYWtcLjwOovZ7vfUED22GOPojSIHZczfuWVVy5hGMJEnH+BBRZo7rvvvqmpKUMIIfRNsgmFEMIERP/GQs7CbpKjsEjCtCxAhGzhOD4HC+GckF/joHkJIPTyD3/4Q9kvXIigLsxHLDZlhILCI0BxcI66AFQrlAseCGFFlAuhKV/4whdKvLrz+z1lwIJORx99dJnMedJJJxVFgBJignQIIYT+EWVgCvEMhBAmGoRmk3NZ4VnkZV+p6RpXWGGFEosvnKc7hBUJ5ekNAnxrNpjaj9Z+tTtji32Os/k9haG7/tc+kzjNc5AO0uROCoDwJmFIrs3vXY9z+KRU8ICsttpqRQkJIYTQPxImNIXuBqMQQhjPsKjL+kJAPuCAA4pHwCbl4SGHHFIWd6IMiMsn1BO2KQEEdmE2rWlD9ZH2+74vTOQljFMmKCJyrfubAC8zEaGdl6C3fldZFBkTnE1KVn+eAROVZR5yPikiKQrmDMjjLs3jLrvsUiYQUx5CCCH0j3gGQghhAkJwZkUXbtMak09YlyaRYE/glgVIph9hNxZwMo+AkmBtggorPKWBQN+XQuBc5glIC1kXeKJYSFMqLElsP+9Eb+ibTz/99DJx2ARo5VvZtaZDdW7nsWCUsKA6Udpqr8KiXFMYG7iXnp3utqp8hhCmLfEMTCGegRDCRII13qRbArhsPWLz25FfnaXeZFzpPcX2WySJdV2KTQuAEdhAeRDrzwIvVXGdANwd+lMpTI844ohixZdtSEYgi0fZZ6JxX2k/ncPk4FdffbWkSP7c5z7XbLjhhkUJMCn5E5/4RLkumzkD1lJRd2sX8BbwPIRpD6XsgQceKJmkpKVdfPHFy2YSuPv7xS9+scxdCSFMWzp6nQGDiEVGxKVaxGSikXUGQuhMhNFI4UkZkBKUN8CCYK2YMyA0SCiOzD0m4+oPCeqs+yYEs7ibxFst+5QAiysR1k0SFo4jth88C0KP7GO19z3PhEnMhhlWfQtJmbugHGlIWfWXX3758nteB/2VLEef/exnS1mEe5mJXI8yZTCy2isvgbq7Rp4Hyo96O7f6dne9vZF1BvrPQNYZcO+tayGES+pZ9waeB8ql1YPdT4oeJTGEMG2IMjBlUJLarjXH9UQhykAIIfRNlIH+Mxhl4Kijjmr23nvvZo011ij7iR0UR/NXHLPWWmsVT4EsUBRAXi3KoZAwSgLl0jwU+yiA1pOgqPqeAsjLRYGVTcoxFFznF/Ym9a35JT55unirhNA5jgJJsaSkUFbtd25ZsnjMzJ2hVPot7xmF1DFVkQXF03oaFFX1oeQ88cQT5dN1Uo552YTGCXcLYSzyukOn0PV3x8F9KWZRR2PVzYmGBXlY17jQQwghdI9QlWeeeabZaqutuvaEnpDe1cT0SZMmde3pGR4b808efPDBYnCba665yn5CNcH5ueeeK0K5OSY8Trw8Vr6+8847i+dKOTxD1pIgTAsbO/fcc4vS5nubeSjWziB0UzrMI6Eo8Eq5rwxivFzGeAI+pY8i4347v40gX71jvlfnF198sRxjpW1za4SfUQxktLIit/kwL7zwQplbQ3lQR8qGa7WytvUxKB6UC6ijULwQxiKZQDwFHVMIIYQQRgbjLeObTdgXIVmYEOs9y719JowLR5Me9oorrijZrwjoDz/8cFEEWOSvvfbakl3q6quvbr70pS81888/fxH6ncdYTiCfddZZmzPOOKM588wzi4XeOhuUAkoGYX399ddvLr/88oYtlDeC8C7Mze8pJ4T4XXfdtaycveqqq5bfsvYLYXMO3ojLLruseN0333zzUjZFxjkoJDJ4WXn71FNPLUqEcmT36mvyfQjTio6fQNzBUVIhhBDCiFJDggjwMluZ9G3+wHbbbVes8UKEeAwI8azw1sSwkjTPgTS05vPxcAsdYlknvLPsE9CF7wg9WnPNNadmzOIBEPZDsPd752PRZ8GnNJiA7pgaImR+CiWD1wDqpEznE9YjPMl5TLZXJ+eiyFBQhBG5HtdAoeHFIPS7Tt4O3gxzIvxeGUKiQhiLdLwyEK9ACCGEMDIYY8XzE7qtAbHBBhsUgdykdBPK/S37E6WBIH3vvfeWORzmvLGoUxDE6RO8hfTuuOOO5f+TTz65WN+FBbWiLEI+CO+EenUQ4y+kyHwC2bXso1wQ2tWFdR8WsWP591vHUBpsQo98R/kwj+Gmm25q9t9//+I9oKj4PaXFueyzlocMVxdccEHxTlCIhE2FMBZJmNAUohCEEEIIIwMBXdY+ITWf//znyych3NgrPKjif0K4jVWe8M1LsMgii5TQH56ATTfdtEwYJtQTvM0fELpDWai0evxbx3mb/9u/b5UBah1a98FxvAI8AVbwpphQEoQU3XPPPWVicy1D3es200wzldS4jjd3IYSxSMd7BkIIYSJDiDHR0YRHcc91E69tkqQ46PEUy8wCS/ATLhLGHxQD2XfE1ROkPZdChAjRhH1Kww477FDmA1jXYrfddisx/qzx7rtj11577ebggw8uSgUBW3ajutCclLY1049sgTWrjzUqbCz05gXY51kyWZgnoT9rUzjeNvfcc5f1OI488sgyJ8B1UAZMYqakmIjOM6D+wqO23nrrcpwQpBDGIvEMTKHdAhBCCBMBfRzhiTXVYk9ioetm/YHtt9++uf7664uAM14Qry0DjJCMMD5hed94441LWJCsfgR5VnTpO4UAyeLjubWWxIUXXtjcfffdRaGVIU/ojew+nm3x/EJ66lgOz4dJx37v/DWbj3kEBHKKsMm+FAWKsDAji+oR4nvD+Qj8JiYLEaKM8gxQYCgSNhmF1Ie3wvwBYUHmKlhsT52dI4SxSDwDIYTQARD8CT4EFRtrqvALgpMMLeMFk0BlhBEiEsYnBH8COAHdfZSqk4LAAyAFp2fTpGCLkVEOCNgmGfsN6zpvgdAb8wpk8PFsV6s7oZzgbW4CCz1rvYXtnNeaQiYvy1qkLCsg+x1Pg4nGvaHOJgMLV6KcqJ/fUVZ4OSjYJhGbR0Dh2H333UsdZDQS6qQc5whhLNLRi45x4bl88X8sBhONLDoWQmejf2ON1L+tt956zTbbbFMym4DVkhBmwqZJlhZhhNztQjdYVHlNCVFV0DGJkvBFqWCZFw8txEJOdbHg8q37PcvrtttuW84nCwsBvnVfb2WwEstlL4ypLgwlD7x0kzwCJmc6l+PXWWedIiQONRY7i471n4EsOuZ5EbIj57+Ft9znVjwHng/PkNAh8weErpmQW8N+WNuF5bDcCwESksPqXi3z9ksv6hn2fDnHJptsUjL3OEbmICFGnlXvAg+D58ezVScLq5vwJSFDvnOsuvqeMlL3UQT8bVz1/Ht2LTqmfp5R9RGW5NlVvvJMVlY+ZcP5QhiLRBmYcvkrrrhisZBNNKIMhNDZ9KUMWOCJUGefUAbZVngJCEwsmYQboRasqSZOEn4IztIwEr4cw7LLOiovvJhsizJRDuSBB+WBJbbuI8gpg2Dv9yzCBMall166LEwlZEldCIGyvainelihVmjH2WefXQQyYU6UAdbiKAOjx0CUgdGGJ4DwLU6/r7CfEMI/yJyBEELoAAjhLLGsljaCLwHd5GGWVQhvEOPMynnggQeWSZqzzDJLieH2nfALgr886l/4wheajTbaqFhWWWz1p33Nv3KM8zgfK2stQ2YZ5aoPxYDngcdWGTvttFNREsR3iym3Ui3jjRAM4RfJ0BJaybgewsCJMjCFvgawEEIY77CoC7UhyLPCW1mVcuB/udNBUBey8YlPfKLEXotx/vSnP13CPQjqdVKk/PCUAKEUzjUQAUwZrLbixVvLcF5eBKEUzvfQQw+V1WiFZ6y++urFC8CTEEIIYXjJBOIQQugAxFPffPPNJSPLDTfcUMJrCP1ytgvDAQv/fffdVxZ7ojjYhFyYZCzGmsBeV2aFvOtCecRN99eoogzzFKRedH6CPg+BxaXEe88555zN6aefXmKv1YP3QdhQjRMPoSdkGtprr72mhsKFEPpHPANTiGcghDDREc8v6wkFQJpR1ngCfl0sCYR6k3hlXSGE2ygRe+65Z4nZpwTwEtR1CXyK4yfE60+dx9bqKSDAtwrxvZVh/hbrv+/WXXfdZrPNNmsWXXTRkhv+4osvTgah0CtCz4S4mYcSQug/8QyEEEIHwZovzp5wbxGnhx9+uAjbkPHExF1x+YRxqR0XW2yxkm3FCqoEdYK/ScUUCROJKRM1fzovAYVBfnhKAqXAHIC6CBRqGTKwtJfh/K+++mqZ0yAUSepGcwfsV0/1pWxQQuIlCCGE4SGegSnEMxBC6DR4BwjldZEm8BroD6VvlA7SnIK6NoFUirwLlAIhPdJ/ShlqLoEwI78TQiS9aJ1j8J3vfKdsshTV/lYZ6K4M2c+kljz//PPL/88991xRJHgTLO5kPoFsMc5fV0+mnIQQQhg88QyEEEIHwjtg8jDh/dJLLy3WdoK68CHx+cJ3TCyWFpTFX2iPEAxzCL72ta81W265ZXPKKacUIV+Odh4HygALP+v/5ptv3uywww7Fc2BSsvNTGMxRUAYPQGsZBH7fmctASdl3333LwlJ77713SXW68847l/NYV0C4kNTQfiefewghhMHT0esMSGkntlBWjWqtmkhknYEQgi5eTn8rscriUyf/wmReFn9hPiz+MHGXsC0kx29Z4/1uuummK99bDEqYkDAgCoUFoqxhoJ/hbfAbC0nVBcNkDKIIsOBTKNBbGerCG6BufkfJcA5eCcfZLzzJZGa/cV1DjRHPOgP9ZyyvMxBCGBwJE5pCwoRCCBMV/Zv4fNb2VkUAvAImXVZFAARyln2Tja0Ky1JP4PZbm/h91nkegDnmmKOZYYYZun75d4TxSDnq937Lm6CMqgigtzII/H5jzoDvfDqW54BioHznqulNM1k0hBCGRsKEQgghhBBC6FDiGZhCPAMhhDA4hPBYwdh8AZb7EEII44v03CGEEAaNkKF77rmnrAdgDkEIIYTxRTwDIYQQhkS8qyGEMH6JZyCEEEIIIYQOJZ6BKcSqFUIIIYQQOpF4BqYQZSCEEEIIIXQiUQZCCCGEEELoUBImNIV4BkIIIYQQQicSZSCEEEIIIYQOJWFCU4hnIIQQQngtv/71r5tHHnmkmTx5cvP44483v/vd77q+aZr/+7//a773ve81X/3qV5tbb721efnll7u+CSGMN+IZCCGEEMI/8ctf/rK55ZZbmh133LE566yzmvvvv7/52c9+1vzXf/1X861vfau56qqrmoMOOqg57bTTmhdffLHrVyGE8UY8A1OIZyCEEEJ4LbPPPnuz9NJLN//zP//TXHbZZc2kSZOaM844o3n22Web5ZdfvjnqqKOa73znO81ss81WjgshjE/iGQghhBDCP/GGN7yh+eAHP9isv/76zVvf+tbmj3/8Y/EK/O1vfyshQ3/5y1+axRZbrFl00UWbN7/5zV2/CiGMNzreM8ArEM9ACCGE8FqMje973/uaTTfdtJl++umb//3f/y1zBRjSKAQ+l1pqqaIM/Ou/JtAghPFKPANTiDIQQggh/DNvf/vbm0UWWaSZb775mne9611TDWivf/3rmznnnLP593//92bWWWftOjqEMB6JMhBCCCGEbmHxf9vb3tasvvrqZQ5B9QC86U1vKvsoBBSDEML4JX69KcQzEEIIIXTP6173umattdYqykCrZ8C+j3zkI11HhRDGK/EMhBBCCKFHCP9vectbyvwAYUHvfe97m/XWW698xisQwvgnnoEpxDMQQggh9IzwIOlDV1555WbxxRdvNtlkk6lzCEII45t/+X8dbB7fY489mne+853FwvHRj360a+/EYb/99mu+//3vl4VhQghhLPOnP/2prHj7k5/8pHxKYym/vew1I80999xTVtrdf//9u/aE7vjrX//aPPPMM80Pf/jDZpVVVmn+7d/+bUSVgRqOJK0pxWPGGWdsZpllljKHIdmLQhg+ogxMUQbkUDYJaqIRZSCEMB741a9+1Xzve99rXnjhhbL94Ac/KPv++7//u6SzDJ3LG9/4xqIIvP/972/mmGOOZt55523mmmuuEqIkdCmEMHQ6WhnYfffdizKwwQYbRBkIIYRpgCHohBNOaK6++upi7WVxFoZC8CMEsj6HzsSz8Z//+Z/NK6+80jz11FPFg3PHHXc0q622WrPDDjs0n/jEJ7qODCEMhY5WBnbbbbcy2EQZCCGE0eXPf/5z8+1vf7s5/fTTS7aahRdeuFlggQWKxVdue6krrYCbmPTOhmdIuJiVj3/zm980P/rRj4pC8Pvf/75ZYoklms997nPNdNNN13V0CGEwJOhuChlsQghhdHnuueeaa665pvy9/PLLl23++ecv4SDveMc7RjwePYwPKIrCgd7znvcUb9GSSy7ZrL322s0HP/jB5umnn25uuOGGriNDCIMlqUVDCCGMKi+//HLzjW98o/npT3/arLHGGs1nPvOZ5gMf+EDSVIZeEUb25je/uVl00UVLONkMM8zQPProo83jjz9ePE0hhMERz8AUYn0KIYTR4S9/+Uvz9a9/vYQILbbYYs2qq66aMI8wYBZccMFm2WWXLV6ks88+u/nFL34xKpmnQpiIxDMQQghh1PjZz37WPPjgg6X/lckthMFiAvEyyyzT3Hzzzc13v/vdMq8ghDBwOt4zwCsQz0AIIYw8FICHHnqohHdYyVa++BAGi3kls846a7PCCis0Tz75ZAk7CyEMnIQJTSHKQAghjA4mfUrp/LGPfaxMDg1hsJhDICOgScXf+c53ytoUIYSBkzChEEIIo4I+1+JiUoeaMBzCUPEszTfffCXl6O9+97uuvSGEgRDPwBTiGQghhNHBRE8ZYYQKhTBUrEdBsfyP//iPsmJ1CGHgxDMQQghh1PjTn/5UwoMIcSEMFc+SuSdSi/7tb3/r2htCGAgdvQLxjjvuWFa73HTTTZsPfehDXXsnDj2tQGwVx29+85vNcccdV9L8Vc+I+Esp/sRfrrjiis0888xT9o8HXnzxxTIozDjjjCXVXCsecUvau2bp6MSYTgu4sFmvDFgWz9He/WH33Xcv9bbSZvu1tTPQMlhpv/KVr5TFnqR5fOmll5pLL720OeKII0pbWgG2v/zkJz9p7r777uaSSy5pllpqqZI/ft555+36dmwhraXJhxYykoHktNNOa+aee+5m8cUXnzB9gWfhiSeeaM4888zmy1/+cjPbbLN1fTPtkPrRxOEddtih2Wqrrbr2Dg6r0v785z9vHn744ebZZ58taxf88pe/TL75DsQqxZ6BWWaZpXnf+95X+kmL13mnF1lkkeajH/1omacSOg99jgxm+gab8ZEMpH+0ijXZwBjAq6Tv0K/89a9/Lc+UDWQk8oV1UIwbb3zjG4sxw2J4b33rW0uommfOM0a+4PU0tsw000xln9+MdaIMdKAyQACU5/uAAw5o1lprreYjH/lI2e+l+eMf/9g888wzRSgizFnlcTxw/vnnF0VGx98ei+wlJ+QSUrfddttm9tln7/pmdDFYmeRGwJZbvb8LLK200krN0ksvXerelyJTy9D5KKOvCZp/+MMfmjvvvLO0mefA35TEK6+8suwbSCdm4R9t/Otf/7o8V54h71dFVzNWQvLkJafsLLzwwqXj/8IXvlCenZVXXrlMbB0q3qX+KnuDpa8yPPc//OEPm3vvvbdZZ511yuA0rRkuZYDg77oeeeSR8t4bjA3MnteRbvcwttHPMIYQ6oxn+jgKAgOFfjRMTNxvwr6MUoR/co7/Cf4w3hp7fVbB3qf+wqexyd+2Ok75bBWR/V03fVndquLguaufNmOLMqeffvqpyoFt5plnbt797neXPmus0NHKgAFJJ7HZZpuV9GQTjd6UgXvuuac58sgjmzPOOKNZYoklyn4Pr+8OOuig4nYl0H3qU58q+1lSvWRc/LRiypPNw0y7NimQ4OFF8tD7pHl/9rOfbV599dWijRu0Wavxgx/8YOo+wnl/yiAAKMPL5gVz7/zWb44++ugiCCy33HKlwyeEqoNjCcfa4Lbbbmu22GKL4vXwMiqf4qM80ObVj5Dot+0QcikVrJHq55l55ZVXisLkdzoO37te5xQXrY4f//jHS/0tm//AAw+Ua95oo43K/vbUisqQL1sZroela5dddikKAWWAFUIZP/7xj4sVQ9u41lrGddddV1I36nw23HDDsl9nqO1cr9edQsFSpg1YRe6///5iRXM9t99++1RlQHtob2XxIPltVRra473dg69+9avNFVdcUdrCs0NA01HqdLWJutQyeXIM0nAu97kqnnfccUdpO5vsIKw2LHw6VtdCyHV/CPKupf1eeZYMBtqxlqHjVYZn07N6+OGHl/uw/PLLl2s/8cQTyyRE16Zc53DuhRZaqBzn+uvzot3da526a3WctndNv/3tb8uz4f5Thvy2FffBM+PdcA7HLrDAAqVe2re7Muacc85iXWovQztoX/XXdvWeeHa8XwY4dfM81IW9tEs9h/vCW6BdWLVcM2VSH1CfLd95LljB6nNkoqa61ufTs9TfQU19h6IMqNcLL7xQVi9+7rnnigBgNVrPh3pqg4QfdTb6CX1M7QMYKfQj+knvpOdP/9iXoSSMXfQj3v0q8Bs39Z36qGrlt+mH9d3VYm9z7/V3NuOvvkufr9/Qp9laFQXo76rQ7/myKV9/VMvyzBlvbPp3fWytj/MoQ1k247h6GJds+n9yh++6kz1Gg9cdOoWuvzuOW265pQgsQiTcmIkG678Hct111+3a83c8nAQSgikhoQphhA8vwlNPPVUEAwM9YYEgd/nllxdB8bHHHiuDsM7V77xMhO0LL7ywCNvPP/98Od5gfdNNN5WyKR7CR1hpLBKDr33ta1P3EcIInJdddlkpQ+ddyzDAu0c69cmTJzd33XVXySdt88J5iQhPFp0hAHmR1IvQ6W/X4XxnnXVWCWPRMRBwnJNlkSXb985H0AEBT2egPSo6g/vuu6+55pprSh0JlF7+U089tRw711xzlbZWR+2unbSFAYmwpMO69dZbS5mEOi+9cnRIFWX4/uqrry5lEPodK7xJG3lOdXgXXXTRa8og/ClDx9hahg6HoGiBJ8K9T2Ej2svzrm3V+aijjiodHcWlhl24b9r/xhtvLEqMZ0I9lGFQdd7W9nG/eBUeffTR0hm6PvXzjFHyCPjuiQ7WuYQiOZ92d2/dK4qd54+g6Dc6Um1OydDpUmzVn3CrfYSx6UD9phVtTcFRhudQedpSfR2vHZyTokOpdA+Up/0d5/x+r/4EdZ21wcY+ba8O6u3eGkC8IwTkc889t7SV/YRqykoNTXBuA4ln3LOqDs7hXBQsz7F2q2X4zkbJMohQUtS3tQxt7t1yDw1y1SPm/lMKq9B+8MEHl/fc9WtP7eIee+69Q66f0uEdrO+Y7zxbngH3xbPkmrwvvtem6mcQrEJ4f1AfXhltU/uC/uK37pNn2Sehbu+99y4eHXVwHd7F0NnoY7wz3in9svBH76Hn17ij//K86qPC+ILsYlzQLzJqGEOMMcZDXkLjE5lEn/zJT36yWWWVVYrhjQGQkVCfYdww9pIT6rPAUKKP058bEzxDreObv41R9htvHKcc46jnzNhGrjAOG6v1Scqz/sWnP/3pss/Yow8zxuo7qyzlWlyTMY6CQdFwnHq01mGk6Wh/qgbHaDb4WMZDSODyoGobLwth/YILLigC/iabbFKUgn333bcIiQQGx3shCVAnnXRSERa8CB5wL05/ILgqg7DOS0NgErZB6PHCOJeOnAAltvvaa69tDjzwwPLyKX+99dYrselCIXbeeediKaxCgRfXi7jddtsV4cPveCvkOieU6CzEVPOQGDhYiAmTlIhWCMsUHp0AL4TjtBdhioJBaCKYEVJZ8AlcW2+9dRHgXAeBkpdltdVWK2FpQtR0IK3UMnRKxxxzTHPKKacUIa1aItSLoKcMArMyWFeVcf3113dbht8Q/JRFydB2BkFCMgtrbyhHB7XllluW37kvLNIEUZ1WKzreNddcs3SA6qa9tbv2ITAS4CgYlCgCL0uufZ4XSqfO/Fvf+lZpA++j9ne/eCl4cwi3nknPBau+elBq1KUd569luOaLL764KDqUTwKvtuGl4DlRV4KpMnXM2s+zqFzKJaFXG3rWCek8CZ6VE044oQwCnnn330DhOfa8Ca/zTH34wx/uqtHfY5p971kgnLh2oW3aTJ0MYsogjBtAahnu6cknnzy1DO3p2pXhGM+8AZJCVfH+GqTaw50oAu6766WQeMYYBdxb7xiF2bW6d54tz7H6aAPt7JOC4J75zT777FMGU+/maOD+m99SDRyefUp9f/uZ0JlQDPRL+kNzr/Sr+v8w/tAH6fe22Wab0ncy6hDk9Vn6eZ5p48OkSZPKytT6YH3ytJTxKA2MOZQCY5n5eOppPOH1r2OT7zbeeOPm2GOPLX11+xg70nS0MtDJELZoqCanEnCE19Ce/c8SSEj2yc1G86ZNE6AIqgRLoUWEUJZggzPBy37f+5sVu7/UMgj0BJj2MtSTcE8xcRzBSejE6quvXgR7AnrV2m3+bqV+59N5WPQJP8637LLLFo2dUOOFJUQRkglYFYK44wlzLOKUBpYmQrdPAiwhyu90QNVjoiMiJFOU/La1jurR2kEpgzKkLVvLcE98EoRcdy2DFVgZFCLCHUWJZbm9DG266667FsHO8drWdTqONaI3HO+6CHuUQZbX7bffvgjMBNJW2tu4/q1tWdf9lqWD8kY50DG6b/Z7XlwjZcB1aheWnRp+oj0pRdrF+ezzfLhHnp12KBw60lqGwUIZ7i0FQr2UUdvJ/6B8eOYdrz7qoAzt7t54Xjxz6qD93V/XSolQD3XXsVNG2wcgZaiLZ4UnjVDtfxZ7gj3LvjauZVA0ahnqqAyKWXsZPu13zc5N6TBgdqcM8Ho4Vuy033qHKPYGVvsps55XVjP3XvmOpWjwjKiH55NCykOlP1BXz8NIow+gFGlvypIkB+oTQn/w/jE6bL755qVvZSwwloSxjXGTkYTxbe211y7GQH2V+8ggKTHC5z//+dJvGSP0a9WyX/v5sYB6qI966cPU0zjCU0EBoCAwwOy1115l/KnGM15dnlj970gTz8AUxsoDM5p4MAmGBEvWRcoAVztLoQeUME/oojQQUmiqrJ2HHXZYsc4RaFg0CckEIcKLB9x5CVL+7y/KcC5lsE4qg8WVG9B+5yd4eDkIOjoGnQKPhBd/oBDwKAQEWpZX57ARTFkaCX+tWjkBi/DjOfG9dnM8odrf9jsnSzLB+fTTTy/X4JMioP1YdntDGYRz5yKIaXudBqHX39q1uzJYSVj+awhUO86h7izv2s2mc7WvrzqxYHsOeD2UJ6KQ1dn9UJ/+oO4UrSq4ESYpPgbm2kF6XtwL7V7fSe3sfjiGZc//zqXd7fO3NrO1ox1dmzKgDMJ2LaMndM7V0qzd3AfPpgFJvSmm3gEdt/k2rOu+YzV3TZ5/dSaIt6POyt9ggw1K3a+66qpyDp8UAG1ay3BPaxlCGXsrg6Jk8KAIUrQI/NpEm7ueVmq7+A7qQWEg/Du3sj0n3q36bHnehBt5Hyh1jASeaZ4T7yoLq7YaSbQNZUdbGfRrzHcIA8H7Z4yTlc24pd/0zoWxBaOGMYcQrC8SGskYwKuj/2GAIK+Y/8HIo5/XBw5GFpiWVJnDGE9BZdj5zGc+UwxEvB6MLPpy3mT9rU/PbV/j9mCJMtChEJAIPqySLIM2sXWEpu4sboQFgzIh2t+Ec2EghP7ulKrWtq37W/cRstoFOeetE3Fay6Dxs9gK62DNJHwQfFh3dOjONRBa69vfZ6CGr9Rr8akNW/c5l7rUa/A/azbvBYG3L7qrS/s+/2u3qtD4X2fYUxksyixgPh3vdwQ75+iuvFYIiqzrhC8dF4GUAEwhcK7+4FkyCLfSV7nwO1ttX39XBaTuc57ezlXvC1r/7gnX2Prs19+0llHb3UaRpEx7Pv3Wc+mzu7Ls8733jbXde0YQ8fxyEVMYoazWMrxfBgVl+H17GRQW3iH7Kcc8dZ45A0x37d7eZt4zg4vnu/7f+vx6/yiE6uF9FJJHCVY+ZZ2XQLkjCcHAHAHPLC8Yz0gIg8H7TaH07urPWsPrwrRFf8PwITRYODJlQL9I0CcoC+9kuBQxwGvZ2ldPBPThDDXGW8oAj4fxV3/HeGccF6JZoyOGm45WBsI/YGkz8BMAxRULYyAgeEAJFrRx8drHH398iTXef//9yxwC2jqho1qa/YYF0gBeIbx40Qka8LfYZ8oFWssQttBehlAJ51ZHccK+o7g4H1dh63ltPaFuvmfNZxXlbtT5EOCdowpgLKossBVCqA7JcVWYVh9eFP87r/MJKxG+4Bpo8uYWmKOw2267FQENym9XgqAM11cFfXVTngGLcNZaBmFSpqhahhSxytCGlVoGQZN1t86XEOetY3U9vbUV3EMdEWs2SzXPAAsNa3B/3ZbtgnG14DiP8l1XnXeh3bsTpAeKdlSGtoMyCN61DCinPg99QeCuYUPa0PMnrlNsqjkHMg55pnpDWfU+Eu7dM+3pfSNQqysFgaAtm1drGWKdaxndtQ+rkms2SDhXtZa14xjvmraH55gwxOru+fMbWaC8d95Bz5bnjBLu+a3t55rVjdve+2JS5kjCO6ieLGbKdw0hDAbvD0+jeW36U17SMO0x3umXKALmpgmZMYYZ/409hGNeHaGVnYD+mAGGkc+YvcceexQFlndU+wgL5iXQbv0Zw/pDPANTGA4BZCJAUDPplSJAISCUevm444SmsAQSZgj+3HceyBq2IBabturh9HtZUiqEEIJ/DQMhhDi+WkN1zrR9+wz6yiBsKkNIgvOxSIsPFA7hfhGcvBz1HrISEOirgtGK471crkcHU11zBgPCclVeeBsIjeZHEAArBEvCkGtVZ0qA0A6TKLWFcxNSCHbO5yVVF0KMib3q7jh1VF9CYfsLXMsg8AnLEO6hDMpODR9SBsGPxaSW4dhahuPUpQqeynDNrpfFwfEEP6FW/QldMsFap+w3BDDlO5e/2+vfXwi72l18unqqH6+F+01hGY53URkU1PYytA/lVRn1efG89gUPGqXIcyorEgVS+/JMmYxYhfzeUI46eIYJ7Z5D5xPm49573tyj9jKEzvVVhufOu8Ar4H3xf1U+W9EurlsokHN5joX8mbSufEoKKz/lUf08Y8LK7PMOmsTteO+v50yZlKS+rn2omLfiOadot76XIQwW85G8azxOYdpjjBGK+qUvfan0PUKDDjnkkGK40j92Mq7fuG8+p4nHZBdJLoSRareBRkb0RDwDYSqEXRNOeQgICgRbgpDJOgZ+mUXWX3/9krGHYFXDd2qaQNZp2YAID61WaucTyiC8hLLBuqoswg9BgoDJJSbFl4dcGWbZE6CVIabZ7wlUPANCFVgtCUwm3ziXUAYCiwwsLJUEvQolh3dBnXk3pDxVJ7P3peJUlhfNi2WyLY281fpIeFQGC7k6SWfIsktwtzlWPWWsILCIK2fRYGFlRVeWdmTZIKTS7Fl8xWhXlOGl9ztKAGuAerGaK0P56lXLEM/t2tXDxFtlEJRcp2NrGdpOu5mDUbPE8CwoTzu5Jz0Jc0JgKHA6ZfM1uGndK27MwYZqKJvi5145n0xFFDExoMJQCJlDpZZhsrU2Uob7xspC0XPtlALXTtilXPUm0Dre880bRTkziXrSpEklk4Xnn1DRV73ddx26Z9698SyZ1O184kTVS7uywreWYc5ALUM9usN7Qzn2vU9Km+PbIeybB0LpFjftOfbcsri7n95Nz5BBWf14uCjXvvMceX61ozp6B71rBm6u+5GEAUC5QgTbQ59CGAzGJ/0khTdMOxikGD+M58ZDfR4ruD6P0Wg4xoOJgL5d3yc8Sj+tnUDmIsPoH4dKRy86plFZ5giF3VnSxjs9LTrGysgyzEVK4GsV3MHCSCDVJqyMNE8Cp5dVWADrot+YUMgySMgm3MnT76H1EhPEWDVNeiHM+p/V37l8T6gEQYYQaD/BmQWwlqF8Qr4yCIwsq6ztHlkdubAG3zsXr0WNK655hJ0Dzu1lkQdf50N5IVjUlJHaAwQjdfHZXSekbNfBnUloYmkVwiGrEAVJeb5nWWWNpiQQ4MWoagNtWjPJuDb72+P8DU7O4f54+YWmOJ/rEf6B1jKqksDtrQyCkzIcowydqnNpV8cSFu33v3ZxXkqQtiTsaWdCskXOKFTO5b772711TBVq21GOe+BclDd1ZPH3rGgrv1em49zLOnmvVdgEYVin59nThu6TZ8M9c5znw31zvcpx/a30pwzto67qpA9w3e6782kj94rnq+5zvylGytXulAfPLgujNqaY8oZpY8pad3huvUfeE/fJ88LzVuPg1WWwZbiHXOwUSsqF54ogrx3MSyDwU4rdd14+98Wxzq1dHO8eu/d+o3zfu3cUIcqs596z6z1QV8+ntvHO1Pe5L1wTpUeoUX8XHeOh4r3g6XHtyg5hKHjWebkIosaFMPromxkOySf6D14A/ZrxKfSOccJYwKCnXxayyVBoHBksUQamCAIsh+0C8USgJ2VgpCHQUgIs0OWzv4LCWMeiJpQEzwwhjVDE2m6uA0tuqzchhPDPDEYZ4AWjDAhdHCoUJIYBfZRPSh8DQW+eoTAxIUgJmeTB1XczUlGKedbIAwwAsUyPDIwhDA881dqYd5FBi8Ei9A9GMUYtC58y3DDgSRM/WHmro5UBgxFLYZSB4WWiKgPCJlhMWTBY6cV+86IIoTHBKYTQO9NKGTDMEf55ZXiMbP7mdfJO8yiGzoWXi4GHoYe3jMfZJ89gp0xaHU14es1BEj0gEQbvImUsDAweLh5uobw85PpUStVg6GhlgBLAza0Bh+JeGatEGRhehHhYNZBbWSiK6zLHwMJl3YXNhBBey7RSBpQrLESfxAps4TJKvfAr1mDhR6EzIQKxsgqH1MfLyGW+nJz2nlPhsGF4Oeecc8p8KH2A9JlCPsPg0LfddtttZeNZMQl7MEQZiDIw7HC7s8KJS2ZBr7H74x1zC8TqiXX0AhIqxDfWVJYhhN4ZbWXA5HnzXkzqh7JNttffU+ZNtPbuZh5CZ8Mz5FmhFBi7JNAwR0UYmTh288ISwjI8mCdAEdDevO3aNeFYQ4NMIuSKMivBAwPlQOnoO1D1oAwEwwsrm8FWZqKJogiAG1O2HhMqCRUsRlxzUQRCGJuY8CwFMGFPxioxtd5fE9QJIZmQHGCcYp0WFiRBgsQaQj8Ze8S2yxwWhgchQtITWzuFVy6KwNDRjp5byS8GOyE+dyGEEMKEQzYrc3pM9DfJX2pZMeGZ6B96g3DK8GN9nZVXXrl4fmXkohSwZoehYQ0dCjhjYRg+GCoZOTyrgyHKwBRiGQohhImDiXXWjzC5ztoKCfMIg4H1WsgFr4EUt1IQC3WriC4QPiqsyLNWN2m0pfG1Tkzr5HS/lwa4HieEzf/SQ3a3YGYryhW2JPWv8/stwdr/0g6PF1wrmYvgGoYPXi2eLOHZgyFhQiGEECYM+nVJDKzGDIsYhjBYKAQW7BPnTgiXfapC0LeIn9TS1o3hTbDgoXA0ySWEF7UK6uaurLHGGmXyumPNR7AAoIw6Qtp6g1fCqufmAq644oqlHJ4LC2laL2E8ZMTyblJ6KAOZNDy8SIVrbZ611lqra8/AiGdgCvEMhBDC0Lj99tuLtVMCgWkJgYOrXPwsQc6CaSEMlrq4nsX8hAr97Gc/6/rm77DYCyuyevzNN99cFk08+eSTS7pMCsQxxxxT8uo7ThY6c82++MUvlu8cS2kwafm8884r33dnpCTom0Rvkigh+qijjmouv/zy5ogjjijz86688srmlFNOKZ6I4UZ9uqvTYKiyFsWmLvYZhgdtSlmdPHly156BEc9ACCGEIaEvvf7665sjjzyypPBkwTRJcFr0scq0mFSdVDeRkhiE0cccgne/+93Fim+Rp+7CMCSRsGYRa72tTkCWupaAJp9+DQPyXFIUeAZsvAjWOKheh/Z3hiKgXNm0WH+ta2P+C2+FT94BK7xLmys9qrAhaSYpCxXhSbfeeutr9vFoEBwpFhSWK664ooQ2UVqEHx100EHFs+F9pmhYF+Cmm26a6hkRime9Djnuf/KTnxRFpr/85je/Kb8JwweFUsiZezgY4hmYQjwDIYQwNAj/8rOLrT7//POLFZOF3sJeox3CQJiROtSE4RCGCiHchFfCdl/Wd8qDZ49XimJgArL5K63hRa043sJmPYXNELIff/zxYvmVFpeiQXmoC6UJOVpqqaXKe0ahIAxaLV/oUEWd7ZNphrDPu6FOFAyKgt9+/etfL+X4n0JhLQDpVc2HkFJb2koKg3kL9Zw8JbwbUrIOBOfvKywqDAz3ndI4WDreM0ARiDIQQgiDRx+6zjrrNPPMM0+x+F122WVlLYETTzyxCCAsVqyBBJGR9hY4v0mK1hAgLIUwVDxLJrzyCgwkvMWETiFGJvvW8DlKgQxXL774YgmrE15HAOct6C7nPkWakC+NNe9Du6dLiNLMM8/czDbbbGVV7b6UFcoFJYD3bM455yyhRgcffHBRWh577LEiUHqflaMu2267bbP77rsXL4ffsEDzChA+KUeUHiF5A8nSRcGgeFAi9AlhaPA6eZ54ewZLwoRCCCEMGZMaa1gOYYGnQFw0pWDrrbcucc0EqdEY/A2O6sHiGsJQ8Syx3LPODyQchhJhzkpr+A8L/V577VUs/Cz6Ft7yvRWPu8PvCM2eZYJ/dwhTIpB7v7x7vaH+Fv6i3PA0OKdzC1eiSFioFM4pjEmWGkq11JWOFRpEsa8hSa5joO+ZRbJ4BrSFfiIMDW1JUWufzzIQOnoF4s0226xoxjIBTEQLkklMF198cemQQghhpCFIsMpXgb96XoVZzDHHHGXhrwsuuKBYI0dqBWLCjkUBd95557LKfAjDgUnAniuTfzfYYIOyrwrWxtoFF1ywZPZphaVW3D2h96yzziohdLxkMg8tvPDCxepPsHYOFvfPf/7zzfzzz/8a4ZqAf/jhh5fwnBVWWKGkyW1HuM6BBx5YJjnzMAjP433wrkHYnPkBvHbqShl59tlnp4YaEQMpAsraeOONyzm22GKLEiqknsKeeDdOO+20slDfRhttVLJ1mQshE9Iss8zS78U3eRBrWxJgzTNiRIicMnA8P0K4jj766KlztNyzwYj1Ha0MbLrppkUZYLmaiMqAl7269UIIYaS54YYbykJfNSSCRZUyIIyBFVQaxX322afZf//9owyEccVglAEhQFbAFoKz9957N6eeemoZj70HJv+C1V/cvXA6ITfkEsdXCHkXXXRRid9feumlm2222aa8VxXvGqF8jz32KOE+QpO+9rWvvUYZEPrDMEhwNBn4gAMOKH8LYRL+A6IgQZ+3gGJAGfDeWbGbMi+U6d577y3pUU1iNs9ACt+TTjppQCt5UwZmnHHG0gaXXHJJkb1MttZ+yfzVfzwX7rE29MmL4x7ywkYZGCATXRkIIYTRQhywzCKymginIBzIckLYMNATZGRkMWjttNNOUQbCuKK/ygCRiqAmjMa7wCDnOfT8y9rTrgwIaZOSVEgd75lIBSE/FWU8/fTTzQknnFAyERHS55577uI9qOkkCf8UCpZ7grvJ+yz5FACx/BQJk3+dyzE8FEJ8vI+rrrpqeVfNAWBpVgaPRrsyQOlwTVKomp/w3ve+t7zbO+64Y1dN+wdl4KMf/WhRXh588MHmqquuKp4FxgJeCGFJoXcoa+abSNjg+eJx9TxR+qy2PhixPnMGptBfjTaEEEL3EGYMUMIFeAKEGrAgEp6kKRSTTIBpnyAZwniHEM1STgC3EdB4BGTgkdFKXH2N9+cJYMmtxxL0xeHbbwK+0J1WCPPWJpDNSJgPQV9YkHdNOVKG+iQEsvSzupvfYB4C4ZAA77PGk3s/F1lkkRISpFx1MPlUOlLCeU8pP1n/KQAUFuVZTI0CNFgYYM0zolhRaKQ9lZJYmCHFo4Pt1D3iOaNMuv+eL+mca+gYw8tQSK8cQghhSBi4TRAWmmhQspCS1IbCEQgM7QJOCBMJcf88WLxe0olSgh944IFireUtEA9fjY7i+b0fdU2CDTfcsAjXK620UlkzoLtJwhQC4R9rr712EdzXW2+9ss6A6AZZefx2t912K+FF4vu9c7wLkyZNKpZ7igCLv7k8zkUZoKBQKMT/W6VbiJ/fm1jcExQJHg6eAmsvUFCGgn5B3fUTvAOnn356c+yxxxYFpoYahr/j3vEI8PZY+4HSZq6A58fCc0Olo8OETJQxcYXL2osSQghhcAiB0I+KOTawsyLyArR6Xg1oQi2EZiZMKIwnugsTIj6Z2CtEjqW8Puti+gnM0oESmmvaTUKuWP1WQdd39djeQmQ817Lw+L3t0EMPLZ4ECoQJyTwCFUKjY9SNRV8sfi1TiA6kSbXVdQMI5uYbUAjsY613rLrVOQrCn2pI02KLLVber4F6+mqY0Je+9KWuPX9Pt8ojwFMh9EV2HCFMMixRbGr7dSK8AUK4eG4s+qZvpXRS6Chu7m29ByarDzZMqKOVARrxxz72sSgDIYQwRFgZ9aOEmtYJjq1EGQjjle6UgWmFEB/1oICIFycAjrTAXC3TrNEEUJmLCKUDpTtlAERRyo7QKpmKlKVM4UQmVlN89C2d4GV03dpCnyqM7Ac/+EFpH9duXoX2oAi0K2JDUQYSJjSFzBkIIYShwbDCG9CTIhBCGB6E6whBIvQJRzKBWMrSvtYYGCw8Baz21113XRFMCfPmDrQibIU3giA7GMhhQpuEPzEU+DTHyJwG2ZJMxpadSUgVLwKL+URCuwk3M7/DatBXX311yTBFOTLJnIdEu/AEWXxuuOdedbQy0MFOkRBCCCGMQygDsu+wEJuMPHny5GJBFsYzEpi0aq0E8eqEUhmGWOlbIbC3rjbOQzcoC/UUIZdRwaRYaYh5EU2IZvU+77zzSlYk2ZFYzV27ugkzUt54gvAvGxQPgBStwrK0MYXLWgFShlLC1lhjjZKlzfwQ87EGusBbf4lnYArxDIQQQghhvCBkxCJlBHTrEEhXKr5/JJARSapRcesWLJNatBWCraxGQvOEXxNkCemD9RJUpptuuhIbTymgDDi/cChrHSy77LJlIjYF4bHHHitC9XiCoE+h4QGwYByh3ycPi4niUsUeddRRJeNS63yQkSKegRBCCCGEcQYPgUxFtpGcM8BaryyZjkxIbg9R8f+nP/3pkl1IGBHLtiw3hFmC+mAzAzHUCjtUprLFywuVserxueeeW8o0CVp5si1NmjSprG4u/ao0qTUr0bSU9XgshE/J+sTqf/zxx5cMT+YzmTch/EqIpTkgFoSz/oL5GOZfUfjc19EwWHf0BGKTgOTCpl1KxxVCCGHkYCnMBOIwHhlLE4jHIt///vdLatCzzjprqvAvWyMZi5Ig+5DwIt4Mi6a1TyAeCPoRcfSs6EJszCGgFLhH5k3oA+pGxJUhqW5kPROgeVEoGBQpoTcEb0oHpYcATsFpVXqcR7nOqQybsCybupjUba0IFn+byd28FSZC+41z1k0ZQp/MkRASJTWoTE7q5vvBkmxCg0RuXTPU5ef1cIQQQhg5ogyE8UpVBoRwyLWP7sSn4dw30udH+76h/E4YkbAXwjEIvQRq8wtY8YUynXjiiaX9hqIMdIf4e+spSMNZlQT/UxII2AT+dsG/Vfi38ULYqiLAIu+66qdNH2byct2qckABslEO1MWmHXxHvpQ21mKMhH5hV/4WBjWcRBkYJBbuoLFGGQghhJEnykAYr1RlgEWXNbeKTq0iVG/70Pp9636072s9tjKQfa3/oz/76t+D3WfisJWYa6afGt5C6CYMi/OX/YghdriVgZ5Ql6oYCNdRP/MZ1JX13n1l0WfZJ7wT5gn1+hH9Vb1GykG16lMmKBU8CzwM5EeCvdAeqVApP+L8WfwJ/d0tJDcSRBkYJFUZ2H333Uds4k0IIYS/E2UgjFeqMrDZZpuV3P6tcdz+rv9391n/Rn//7+mYnj7Rehzq/z0d05/P+jd6+r/uEyJkHQJtBcIzIZolnAIgRIi8ZWHC0VIGUIX6urUK+XVf/bv1E/5uv+ZK67XXv+tWPQt1Gw2iDAwSyoCHkmcgykAIIYwsUQbCeKUqA/vvv39ZOKuVnoS9voTAgf5uuM+H4Srrm9/8ZnP22Wc3V1555dQ5AxYlW2GFFZolllii5MZnKTex2ITZ0VQGOoWhKAPJJjSFvh76EEIIIQThIYyHrZvQoe424SG9bTUTUPumjO424Sm9bTUOvn0T2tLTVuPl27caP9/TVuPq62ahrEcffbSEzMiGs99++xVDK6MrpeBDH/pQqaNjw9gjdyWEEEIIIQwaC3994AMfKF4TXj+eOQuHzT777EXpCGObeAamEM9ACCGEkULYhOwidWKl1IO/+tWvpsZWjxTCsghpJlC+/PLLJf2jPPD+V4eRQgYVkzRN2gydwWc/+9nm4IMPbr785S8XhcAkWh6GMD6IZyCEEEIYQQji3/nOd0oGEwrB7bffXhYfuvnmm7uOGBkoIPfdd19ZNXallVYqAtsqq6xSVnS96667uo4afqR2tBDUAQcc0LUnTHSkC/3kJz9Zwp/C+COegRBCCGEEMbnyoYceKosQoS5YZLLzcNCaHaWVu+++u7n//vtLNheZXi6++OJiuZXr/Kqrriqrotac8P1FOcrrDWkV5ZTffvvtu/aEiU6da5BIi/FJR2cTsnjIggsu2Oy5555l0k4IIYSRY6JmEyLkmzz50ksvFeHaJMrZZput+dSnPtU888wzzZlnnlms5f4XR/3EE0803/rWt8q485GPfKSE07Cosq5asVWMNS8C67286NqNgO17ecvlRff75557rqxiKuRnmWWWaT760Y921ejvfOUrXykeCdlcZHEx8dNvlf/d7363LAQlywvF5Nlnn22efPLJkm9d+dpQXUyQtcLrHXfcUSZ/EvYco06LLLJIKdPKrva5fgqGlWflcPe7LbbYotRFOzz99NPNq6++Ws5h7LUireuySutjjz3WfPvb3y7eDPnanVe9lekaXO8rr7xSzqWtllxyyVLOaFmiazahrEA8NIQQubfJJjT8JJvQIOlgPSiEEMIwQEh8/vnny8qrBGwCMMH3zjvvLMKv2HnKgk9CL2XB2ONvgvEPf/jDEsNP2H7wwQfLPscLIXr44YdLnL9VVQnw1157bflOmb5j6SckK5NA347sLcKSKBTmCvitrDSLLrpos+666xZFgOD/1FNPFS+C+lqYiVCv/vY7L2XlkksuKfvU58c//nHxONxzzz3leLge/1tUyjGUAse7Vr+/9957i3fE9anLddddVxQQv3/hhRemtp9j1UN2Gv9TXoQ6OTeFyvfqVX8bQhg6UQamELdWCCGEwUC4JcQT2Hk8jj322GI5JvTLub7AAgsUCzsrt0WXWJd5BAiyLODbbbddc8oppxQrO8s3xYKwbZ987OL9TcxcbLHFipfEdwR85+cFYd3fY489ypo57VhUU4rL2267rbn++utLPQneFBNeAoqAc916661lXsNGG21U6i8lpOuhICiHdf7Xv/51UR4cs+uuuxYvhXO5DmMpTwAFZf755y8r9FacX5gUL4b6HHfccc3hhx9eFBpKgf2UBAqI9hPGtOqqqxYFhkLkk9dFm2kH9ePloNRQbkIIQycTiEMIIYRBwlJNcF5++eWbd7/73SVuWk51gi8hWPhMd0jDSNi3EBOD1BxzzFEEdMI1TwEruFAYxwkFmnPOOZsZZpihCO2s8HjHO95RlAGhPN3BA7Dttts2a621VhGohcT6e5dddikhBQR1Qj6FRhnKI/hLB6lcITvKUz8C/9xzz13qISxIyBPLvfoKGSKYu17KgGuqKINXY6aZZiq/J9TLNHPyySeXVWnNn6DgrLjiiiVkSF58bTHPPPMUL4NzaxeKA2WDp0DZa665ZikrhDB04hmYQjwDIYQQBgPLOQGVoF5TKbJas8gTtAnD3UEottVFmPzWmOR8hH3zAKx2u8kmmxRr/IEHHlis5Kz6QncIzcoQCtTTGOacH/7wh4vgfNhhh5W5F2K1TSi+6aabmmuuuaYI4urPO7DZZpsVq/vGG29c/q/pT51fWerrnMqkLLhmdRKy4zyUAJOTHVdxTRQFAr34fudyzX7rnNKufu973ysTmikuyqe0qJs2UN6mm25aMtUILfL33nvvXbwJ0qaGEIZOPANTiDIQQghhMBBybQT0amCiAAjhoRT0NL4QiKsigHqcfYRtGwGY5d9m4jEhWDjRdNNNV46rykd3sLizplNICOk8FVaC5cHgMSCwm7SrrsKFKAjLLrvs1PJMvjavwH4oq9bXJ0FeaBJBn8VeWeqrbtqj4rqcn4VfnaCdeEzqRGS/MamUZ0LZK6+8clGAttlmm6I0mGgsJarN6rba1jwCcwtCCEMnnoEQQgijBqFS39uTxXy8QZAlsL744otThVuZgIQPyRTEgk94ds1VGO4NQrpwI+cUl08oroI5oVgIjWxF6M2QpTyhQTISmdBb25sQL8zHp2PMW1CWEJ411lijCODmNhC6zXWQvag7XBOlgudAOI+J0AR5521FHSkUrPwmOmsD3g8ThM05oChop1lmmaWEDcky5ZNiYp4EJctcCqFQMgBKVyoTkdAsHoUQwtCJZ2AKvXWoIYQQhg9CHYFwooR4CIth1WalFkMvxl7YjE/Csesl4AuHIcCaaNubIsSbwJJPEJeRR2YiQq/UqhdccEGJ0e+PIkXp8juTh4UEUVYoBSbsykAkBIiXwWRfCoZ7IuMPwVuKzxtvvLGE4vS0FgLrv8nQhHXXywNBeG8NEYLjFlpooaIoOU6aUHWwKJm5BOYqUAa0n++0G4/F1772tXL9PA433HBDmUys/uZSuDYKTRa46kw8k5RLijd4p8yz8QxPSyOvZ9z7MB6JZyCEEMKoQXhmGRZrPhFg0Sb0C5GRg55V+6KLLiqZd8T7s7zLh0/4PuKII0oKTQpBb7CkH3LIIUV4Fj8vO5HsQjITOV9v4UEVlnsW/uWWW66kLRVmZAViMfcUCxN2zSUwCVnud3W0MJl9fke4MhFauFJ3MKJRWgjkFBiTgm3tdaMMaJuafWi99dYraw/UDEsLL7xwmRDMy6D91MX8BoqM3wlv0pbCgngGfE8p4slYaqmlukoJnYS+wzOtH8Fll13W7L777uWZnZYeR0ospXs80tGLjukcdTb77rtvvzrXEEIIg8dwI3UkrwBBTvx6X4yHRcdk3WGxZqFUPgGa0G6SLaHcpF9hQ4SXGnbjb+E+LPPahYAj5MY+WXV8z0qvrQg4zulY3/nf+VhHCcs9wRuhbN4Ek4SVQzhXBsG9pgB1HGVFGI+/Cfos9jIA8Wyog9SflBS/a4UlX1gUpUKmIai7Mv2O0A/XZ1+dkOzcyhdWpP1cj7qy7hqPhV9RRoQR+Z3fuwa/tY9SKbxJGNZooN5ZdGzoDMeiY8LfpKc9//zzy3N04oknlrAzCrN3bqjynPfE5t3tL47fb7/9Siau/i6o2Aovh2fbNlhkCBvsomNRBqIMhBDCqGC4sXiUTDEEPfnqe7I8V8aDMhAmPlEGhoe+lAFCMaVQiBplmHIo9EwImnA2+y699NLSJ8g+xVt0yy23lLkxvAOUU0oyr5X7VdPPSp8rFI3lXj9E2WSQkG2L0iocT6gbpZiCyvPk9xX14nngofKpn3EO6YEdJxzPit+UaFm5eOSEDD3yyCOlzo7nRavXAXVxnZRaCrG6Oh+vmEn5wo543axmzrOmXr0pC0NRBhImNIWhaGIhhBD6h76WJZtl2oRTC2yFEEKFAG3laitcm0MiZa05JgwI5o9Iu8tLRFDmMfJJlqMACKvjoSNMO4d5J4Rwgrb5MBbRM++EYsC7oAyCOkXPGhlW2WZ04KVy3lYc4/zm3/iNcigQfqc+FATH8A7ylPl9vQ5Cv/lCrkOYYC3T3J2zzz67nMP39rlGaXaVZZ8+0gR9SsVIzkfIBOIQQgijhjATVi5WMhNDDZ7TMs43hDA2YH0nEBOQZdSyEvbRRx9dwm5MICc8C0WTYpZV3tobLO36EkI/pUCojlBEIW0EcVZ/4W+s5iJADjjggOaoo44q82cI2DZGCr+VAIBF36rg+qhWKB6UEwL5PvvsU0KTzAli1aeIWB+DBX+FFVYoGbngOoQx8Vi4js0337xMzKdECKVTZ8qNeTM77rhjyRbmGikc5vYceeSRzdZbb108I0KiXMtIEc/AFOIZCCGE0cNcAQPgk08+2Zx33nklLCCE0NkQtFnYCe/CZYTTEIQJ2TYWeFb77jCXxqR4ikGdzE62E/YjaxVvZF3xW+jNSiutVARxVnpKCEVBvL/J6ua/tKMejuF1oECoi/AgQrt5MeaxVHgiWq/DedVL1izXQbHwHcx5Ea6kvjwWfmf1bb8RFuT3JvfzZDhvlVuHm3gGQgghjCoGThY9mWXE4J555pkljeRIusFDCGMb8wMI6IR1c4lMdifQ+ySgE4bbw3cqBHXeApN+6+a3zilsR3iQdLaEdytss/4L2zFhnsXd8X6v3O4MxJQNWa9kCzM/wZwkiwDyWFSvREWZMoZRIFxLvQ51bL0O+wn8ylS+fcKPhA3tsMMOxfMg85Z5U47lNXHukSCegSl0d+NDCCGMHDLJSMlpcJUlRnpAg5643joJMOFDIXQOZDGGAsI1a32rgE1oJxATqLvDb6vQXf+Hc7C+y+7Fyi78h1Cv75HAgDehWvV9Esq7g1DPsr/WWmsVr8IyyyxTyjPRV0pR9as4R3fX4bP1Oupxta72UQ54LxhL1FU5jCYS3Qid8tuRoKOzCYnxorl5GFBvCHr6G/X/4dqP4fob9f+e9mMk/kb9f7j2Y7j+Rv1/oPsxmn+j/t/Tfoy1v1H/72k/RuJv1P9Han8YfgxBrGuyDLEKytvPZc6tz2JGORBjm2xCYVrCKuu5SjahodFbNiGeQRNoyWYEdStiS23LWu5dJoiL6Te5dpdddmkefPDBkpVMFp/21KInnHBC6VOOO+64EnrD2GCdDpZ2gj3LvVAdlnrW9uuuu66cV+y+RfLa4V0QcqS/ohQwVFx77bWlXM+F7JQ17t+cgnode+21V8nwQ8g3Idh1MIDIZCm7kTrLRMQ4wghi0rPt5JNPLn2hugmjNLdKuFBVXLojqUUHyTHHHFNSUtUYtFYBoG6t/7f+3fp/+2fr1r6v/l8/2/f39l39bN/f+jeqZtvd/vZ9PutW/6+f/fmu/l8/+/Nd/b9+tu/v7bv62b6/t+/qZ/v+3r6rn+37e/uufrbvb/0b3d2f9uN6+65+tu/v7bv62b6/t+/qZ/v++ndvzxlaj61/t/5fP/va39t3rf+3/t36f/3sa39v31Va/+6Oafn9tPothuPcBlqDsVR7JtHJIkIA4zqXci/KQJiW9FcZICQKO2Fo7E1w61T6Si3KILD99tsXgZsFn0Bs4u7xxx9fwnJY9GUGInhPnjy59A3mHQk37E4ZoCgwLFjEj2JBEJf+U9iQfsbvTUruSxkguFM+KAXSmTqXMu2nZJg47Lfqa+Izb4RP1+o6rC9i0T3XYeLzfPPNV7INtSoD+jrKhcnGJkKbM8FDWrMqOX938xkqUQYGibgtLhsvb20Gn91t9Tsun/p3f/a3b637B3quaVlGb2UP57nat/rdcJXRvr+37+rfKeO1Zdjfelzr39PiXPXvkS6b0Nqu6FRBtira9f/W79u3+n39Tf2/9fuevmvfWr/vrm7tW2/f1++Gq2wM5FzQF2v72ifbDNoG9ygDYVrSH2XAc8vizNPVmk8+/IO+lAHvL6Fc9hwJBljGCcBy98sAJIRGWA7FgCFXph59BIG5O2WgWtjF4V9//fUlTacyeB3NHRDyI/SmL2WAUG4Sr/OZ6OteC9sRxqOvUUcKx6233lomCRPmlUNhoTC4jumnn75cx2c+85lSpuekVRnQ37kmqytLc0ox0oeaUKwv8/ypd09EGRgG2pthOP9v/w69fT/U48fS/+3fobfvh/P/9u8wlON7+y2G8n/7dxjK8b39tjKc5xvK/+3fobfvx8L/dV/rd637MZjvetqP/nzX/omejkXrdz3tR3++a/9EX9/1tR910R5WNBk5quLRE1EGwkjQmzLAqEiQvP3224tlV1iH9JUEzfBa+lIGvPss5ARuwjDjAOFeqlBx/yzu7oUVsR0n+0+dkOu8QoAYGITksOLXfYR5WXwsLKYMwrhVrAn0qCtcUxy6s75XRc/6KMoCwVxqUXVzPmE+zqM8CoG+ynX4nevgKXIspQDqwuK/4IILTl1J27Ok3n7nb9fCs+F3vBG99X9RBkIIYYSpXWX7J4by3UCO7e4TPX3X0yf6+m4gx3b3ib6+68+xLG0ELJY+q4UaaHsjykAYCdqVAcIdIZSV2vbUU08VhYBAuOSSS5ZQEJ/htfSlDITBE2UghBDChMRkOityWptAXC7rYG9EGQgjQVUGhIIIVyH0W1lWKIrYcZNcWW1ZfcV8S0wipCW8ligDI0eUgRBCCBMSFleDnFhacbhiglvnGbQTZSCMBFUZ2GmnncqqsldccUXxWhGh6lwX4Sxiv8V7e07DP2NSrbCYww47rGtPGC4YTjbaaKMSZjRQogyEEEIYs4i/ll6UcH/DDTeU1H01vrY7ogyEkaAqA4R9z5hMNDV2vBXeATHefc1t6VQoSSbpbrPNNl17wnDx7W9/u7nooouKZ2qgRBkIIYQwZiF4yRRy+OGHN3PPPXez5pprlrR8PRFlIIwEVRmQDUZqSplphAdVz4BPk0hNSJXbntIQ/pnTTz+9eAb22GOPkns/DA/WaGA0sTgZRXWgRBkIIYQwpiGISS16+eWXF0HC/AFxx90RZSCMBFUZOPjgg8vEYAvhCWF7/PHHmyeeeKJkkaEMUBSkn5QPv2aqCf9AKlBJACz+ldSrw4eF1aQota6CiewDJX6sEEIIYxqp/uTm/vjHP15SCkozyiUud3fsWWE0MS/AqrerrrpqsW5vvfXWZSGrukCWBceuueaaMsE4/DMWE/POWoArDB9SlFIIKKyDIcpACCGEMY8Y7EmTJhVBzOI/JnBSCOQOlx9cTm6TOEMYDercANlbxGhLOepvk4utom3Ce/hnrPhLoeJR+dOf/hRlfhgQIiSzlYxWyy23XNfegRFlIIQQwrhA2sbtt9+++fznP9/84Ac/KMKXFIWyurDEdjehM4SRxoT2RRZZpDn00ENLRher484+++xd34ZWFl100WbmmWdunnvuuebhhx8uazWEoaEthaxh7bXXLp8DJXMGQpjCjTfe2Nx0003FmlPTFor/JHx87GMfa9Zbb73iAu5tKfCKVQWtnCgu0m/CwNGxmQTF+rbJJpv0mZmDhckk0xlnnLHE7L75zW/u+iZMRLxf3//+95vnn3++rE7svZV1iIdA6JD5BSeeeGLmDIRho84Z6G4F4gpxypwV8weMHUOdIPvd7363OfXUU8uqt55r/aC+TUYecxI++clPlj6vP6ibd0R4zsILLzxN+0jvpwnY6qI9zf9Jnz1wTFz3rB177LHFEGJti8997nNd3w6MeAZCmIJ4O8t/ywCx9NJLl452qaWWKp3u9773vebCCy/st9tXB06Y1YEPBp32eNHRR6KezilGnCLVX2XKUvPVOkwxGA7Gyz3oRAhawg1WWWWVZqWVVioTii0EZfPuWrY/hNGGIekNb3hD8/73v39YMuXo155++ulihDJx3pg0zzzzFKXg2muvLX0eD1l/oCgbm8y3mdYetDnnnLPMsfCeXnrppWUCtmsN/UdoEEPI+eefX4wjUi5TDgdLPAMhTIH1RYckbSHhQodO69Z5smBMnjy55O/1srEQEfR//vOflxhlcaPcngYAL+W5555bhFIdnnOJj/TiWo2SFUdss5eY0GqfAYSV0+Ah/vk973lP85a3vKUsHEIoVl7tvAlB0iryWrTDcqRelJoqEBOmKTR+p7O99957yz7XVjtf9XaM/1kZTIBzXeqse1AfLm+eDlkKlOMaHDfXXHOVFWG1hXjFWk9xsx/84AeLld55rdLpf1Yz1+OalWtfLddg5W/n43ZXhuMMgn6nzZTRem1+j8cee6ysDGqSKYHQgOkeiqN0T1zvdNNN16uCITuIcpTrOtqvzfWqTz2He6ONtLnv/e2+KEcKTPfQOZUvq4j76Rht4vfaSPt6Viiazu/3zstS5rn61a9+Vc7v79///vfl2tVBvTwH/vbMuOeOdT6Cw4c//OHyTHr2XAuvid/73gDs2VRP30803EOhCNttt12ZY9DduxLCQPDeeH9lEbJYFk/xaGBMEnJk1V6Kr3f6t7/97dR88vqq1VZbrXyvL9CP6C/0sRQGY4q+yKe+yFj2wAMPlIw+rkVfoe9gDNPn+1/fNOuss/bLCz4U9FfqcuWVV5ZJxYxwCy20UBlvQu+4v3X160ceeaTME7ANJTvT6w4V5BZCh/PNb36zdKRCgrxQBAidqw6VAKbD0uES3sXnXXzxxc11111XYh79T0AmmLLS6KSrpcN+HfeDDz5YBPLZZputCIdXXXVVyVFtn7Ai6cAIhRZVIjAS8EyQ/NGPflRedsfaZFLRiROW20Nn/EYWC3XTSdgI2YROgjdhmrLj/IR6FqL777+/HOOadS4Gi1tuuaXUWUftHDptnTUh9oQTTij1UCff20/QFid72WWXlTzHJs8ZkAjABi/lcl0auAxIyvVb5yWUElSFad18882lPO1mgBImRBljDVNHbWZlT2VQauzjydHGLGTCvLSBgU+7comfdtppzR133FHKc30ERYNjvb+tyA2uPVyb+1VjfqVrk9LyrrvuKvfbeQ1YFDvXcMEFF5Rn4etf/3r5nieJIkHY1l4sX54h123zPcVK29nve7/3Hfe5NjJJVnt7js4888wyWDu369b+2tTg6RnQHtre9au3ybUUEYO669SOFFT3yPdc8xQCz/JEdM0Tarw73mXbSAs1YeKjj/Gu6595njxXo4ExSb+gz9JX6hP0b95tCr9+T90YqSgs6ufZ12d51/UfjvO+6yd4uGWcoVC4Bn2ZsU3/4Xh9t36aMsDgMJK4DuOhvlB9jQOMHvpVhhx9W3sf3elUI54+3VjtfgtZM3fKmDEUEiYUQg8QHFnsdaIstTpUArv/CeUWTyEkcneKXSZICl1Ydtlli9BtkuPGG29cOrbe0Okpywu+3377Nbvsskspj9CuM7fIzdlnn91svvnmpXxZGFjR2yHEExKlvKMUnHXWWcXFrIPXgVTlxnnVj5CpLAMEAZFganAgiLNG+X7TTTedmipPR8SSbDAhyJ5zzjlFUCckE7R5QRxHGWJFI7hqp9Zy11prreaMM84oK1Byb2o3E8goRAY+k0FZreadd96uq/o7ro1ArNNThro9+eSTRUCm7Jg0RRmTW16dlVnrfNRRRxXPzhJLLFH2UTBcazsEZ9dm0NV2jjcQqyOPA2XENVdFSX0oPdpPuc59zDHHlIGZQO4eqQfhlPLgeVFvEMzdK23nXNrOsyT2028I9gZHf6srZVUKQ+VLY+i55A3htdDOlEMDOqVqq622KmU6xvXsv//+ZaA44ogjSvlCaixMQ9F03ERDm1F+eUQojCEMFe8gQw/jAyF2WqMf5v3U9/H4GRcoKzzcvGL6JH0RwZrQqG/VnxlDTHSW/YjBgvFFP+p3+i9GG/3C7bff3lXSyEJR1/cdcMABRcHRR+oD9auUkvAP9NXutbGM8ZA32n3ccMMNi2FnqEQZCKELAi3Bcd111y1Cq47R5CaWl3322adYSwhYBNfFFlusCBwzzDBDUQB0ugRAggjBjLWD1dVnf3DsAgssUMJ1WEcIpvaJA/Sis9KwtLMMsX5311ES8giM3MmOZdn2O0IRb0SFoM0i4xjX5DoIjTUsiZeARV9ZBgyflIUqOKqj/X7vWs2PYAU3KU156iuERbnaC9pFuaxUBGPCqeOqlYqipS4EcVb99vCVem0rr7xyKVcd67VRdLSzNmMR126EQHWmGFESDOLOrVwWML9pRx1dG0WsXhtlzPUbQN1rA5b7rVN2bcpUB2V5LpxfmSZyaRMYsN1Hbev8NlY83pnqXVE37aLdhTkRPAj6cE0mLroG1+xZ00YGeFAk/U15oHTxGGgn59W+9lNQWAKV7dO1KUPbTzTcR+sRVCEphKHiWaJ861P1A2MBfWQN9WNQ0X8QpNdYY43ST+lLKAz6QgYd77y+kXHKGGMzxllEzXXp8/RDlJ3at4wGFAJjg8n+2267bVG8dt111+Kp1f/q3zoZBi3K0XnnnVfCHnmOjS9kEnKI+6jfHypRBkLowktFiBCGw+Kt8xSbR6hiVdHxEpgJUSzuVpnUYQnxECpEeCPkDQYdNEFNZ02YqfsI6gRd+/zvb52lDqIdv6UoCIthfRe+wspvoGCVrxAqCaZV4TAIEI4Jtf4nbOqglUnotI/VybXZVxWT2gEZOBzvvL43OBH0deI8DRX7Wss1eLWXS/DtrmOzX/uyWLFuuzaWEdfWnWJUJ8sRtrXF8ccfX1yqfqNjbW2PVgj+rddGmKbsmKxnoJWhhhCvXSlYrslKmo5jjePBEWbUeh0UHQNzvYeeI23gN7wD2kE7O147et4I6VVh8Rx6Nny2Pwf+XmaZZcpgzttAmfU8EgDcL+3vGeZZETLFonT11VeXNvesEBImGtqI8kM5423r6V6H0B+qsi0MkJFDPzVWYKiCfkO/q1/hKeRBFFJpnKpzptrR3/iNflV/qp/kCdUnjXa6T30kRURfxpjFeGKsFcKkz+JB1V92ireA4c31MzBSAtwbHmlGMMYi8wM8i3XcGA6G5ywhTAAIbMJQWCWEqojFE6upwyWseum8pDrKqhTYCFsGCJOfdMbtEE7aMcC0Kg6OUUbr7+2rAmDF3z0pHEJmxJOzHHD1CmMh7LUPBO3nq+eswn5r51KPbS1TnWyV6jFoPy/ar7H9mPpbg5IBrSdY8/tzbRXlGjgIvIR/98l945noLY2d6yJgV5yfVZDwX+83hYHAThGgAMl7z9quPEqhAVXIWBXmu7tuuHbnb/3ep/av96PuU6/2Tt/3nhcDKFc7RUs9lS2Ujaertm9VPNTf9VB2Pe+9tfl4RXuxNLJwumaDaAiDhbDsvfY+E8AYC6Y13n2KPkFf38CQ5d2m9Av78TfDh2N6sqz7Tvgh4xEvp35yWhoIvLfalrC7ww47lD5K/8U7QBET7uSTMYaxo/ZtEwXX437qtxmxGK8YvygEjHH6NEkRyCjGseFSAipRBkLoAdZFQp9JWjpWwh6rLu+BycSnnHJK0dh5CFhkdWA6Zp2aztrL7W/CJaGvCq46Z5bfatWB42xDgRVFZyKG8Mgjj2wOPPDAqSEhVbAERYZlWP1YTdWF4ERA9r/v1c1vDICumzegp/pxm9drgvMaaAiqNVQG9hlofO+cjmcRqqFUvV2/eHp12WijjaZeG6G+9dr83rn971qEMpmbYBJvvU8ygVi3oLcBvbUerPZCbg466KByDjGtvAwURmFRrlvbOScvESWStYalTQcObc1KDc8Ar4V6OjdlgnCuXdRbuxPcCfa8C32hHSlS6mJugHLNWRG2VEOctPGee+5Zrl/9Pbfiibmax5KVczhxXcKlPFuECG1c378Q+ot3V3iQeVrmWRkPejIkjBaeY32huWAMUfoQfQWDiXqa3yS8VRgJwVp9W/v/2kdSknkx/S+PjPla5lux0LceP9oQchlahDDp53faaaditDAG6Lt4PBiGKDAUNe82Q894e7/rOOheGisoY5QzXmh9NQ+4cUM7uDeTJk0qHuCRev6iDITQA0IzxPEThHVErCZi7Qm4XLE6Yh0QSwUt3mQswiEh2EuugyKoEfpYMqpAQmBnxff74YSQqW4GB3+zKrCiV4G+YgBgOTLQsbCb5MtKTECmCLCCVeWHlYJwSqnoSVgXQ0/QZ5GqA5VOTQduYKkoV4dXyxXGU8vtC8JyvTbtJiTGOeq1qZu2Fjrjf8dxqbov6qZevAqy6pgQ7Lj+IK2p+06w1nm7vybqalsCNyu8QbfGphPiDWStg6l6Gqjt8xxoe0K/cxNYtbff20dB+upXvzp1TkVfyEwkJIAiqG7awO8oKARh7SB+WP15DSh75hCYsKfM8TaADgTzTChJwrxMVvdshzAQ9OnedQKqJAEU/WmJPshzrN8xedQYJaxV36IvNNZUw42+Vj9Z+79qSa4GGZ/6C4qz/kK/zAqtnxwroXX6fPO1JLTQL0p4oc4EZUoPo4wwGuPNeHu/jdEUsquuuqooPeZ6+NRPS4hh7GL4WmGFFUbFaJPUoiFMQWciLpTQS4gk0Os8dTw6TgKgOEbfEXIJ2VyysrdIB2mfTpmVvArDOlZCJ3en2E1CCSWAMMqSw2PAy6As3+nYWbNZcnXk/dnXis5Q58Ltq3znV6/W+HZCI3cjqwoLhON4QFi/KS+ONSgIrxB7ztLkdzonnwZHAw2liMAK1meWDcK+NuFJMSCxSlEUCO/i6bnYlStrBWubyU/K1UbKM2Cxamt3ArN9ypKtiZBM+HZt6sQj4NqqQsBiR9DmXjX4qSvPAQVFnVmHtR1hXRkGvzo4Vrig3QvnMpkZFBXX5r651zpobakN671zb/3W91VJNAnd9wZt1itCuZR/fq/u6qDdKUO+V0+DHYuXa9beJv95Jimb9Z57bgjxdZ/2rfVzv2QhUh/hbcKHHGOjDBBqpG/1t/tHUDbYKm8i4t11vz0nhCJt6Z3xvPouhO7QDzHceF+F/EkA4H0WmjHa74pn1jurv9T36Tv1ExR64xEBUr+qX/Cc6//0jz71KzILGYeMYcYm/ZU+Qh/AUGN/DcHkaTBHjVGBEcj4oY933mmF9lZnfSaLuGtQbwrC4osvXvov1+l69b/mFhgnjGP6YUqSttHXT6t+Tnuy8GtT46376NkyFmt7SpkkF0I9eZ+MDcYOzx2Djr5qNOqeRcdCmILOUcdLgCQMVkGRgEzwJ+B6WQ0IBgrWXFZZL7pOym90zjoenZOXnkXZfpOPvfQs7BDfycLE+qI8nR1rjI6YskFgUWbdp/MjvHa3rxWdjXopVxmOYSXXMRKKCKQmZwkn0dEQanX4BhOCpjYg1BKmKTA6Ux0R16RsNq6tCqsGibrglzKUq3xt43vXUTs0CgrBVKgN4doxreVSYqoyQPDX9v6n/DgXJYv3osaKtl4bZYDioe3dD/WgCBCkDRQUFO2hrf3O/TCQaPP2DpbSYL97TIAGa73BxTVQSAyeVQj3ybpjoFZfZbgu1jn3XL14DXxnkrHnQp21nbahcOh+KSmuz/kNetrMIO737jnlsd5z98D56j7tXI9xna7JMdrW8QYT99FAr+1cj+dG+VW5mMi4Xu+1ORTaSHtrf8+H9vc8agP3PXQu3l3vH4+od9HEc++2vsC7yIs3LcKDPLuERwq//tH7rY/QNzBI6Jv17b5jFCEMuw7Ps/6eUUCf7jn3vutbnU8/Ruh03YwHtV/wXvi9Pkb/YR5cDeMcS6h/9TC7Z8ZWbeSe+c7mXa/irfHWeGAzDhhjbd5912fTrjZjnq19jHAu59XW2sumPycj2Bi1lE+4dy+Mc3VznHNp/6qYeJ4YJoxXvLc29ZxWhoooAyF0CIR1wrawEgvntHsWCPoEYl0CdyXBdjioygB3rs/2cicye+yxRxkMzCmZqPH54wGDOIsqwchATZGjdBEOWD6r8h86E4Kd54IhhGBJCBfCx3jCixbGPoRx940RiZLACOZ/SgIhn+BvI4RXBcC77ztjXasSYKtCu/GwftooAzaGQFtVDChWVTGwUVYoBhQBYx6hnwFH38OQ5u9pHXbWSpSBEDqEqgxIf8kq1JMyQHBixY8yMHSqMiD2k/AZpi0EA1ZfnjoWUUIDz4nBPHQuhEQhe6znwuf0k4S14eoDw7SD4F69B7yzPKTCdih+vOPe/2rRJ8AT6gnwBP3qYQDlgLLgmaBEUCo8N8Yz3hmCPUu/UCaGH/19VQDavfhjkSgDIXQIUQZGnygDYwvPdqs1rw72GQY7mxrCUYU9W0LHJg4UAu96+1bf/fYNrZ+eD7R+tv5dvQitn7ZWD8NYJ8pACB0Cy4e5DOLF62SyVsTu23QJYlGHqwNTrknWYlxZTjppkKWAETrF33JHhxBCCGONKAMhhBBCCCF0KJk1FUIIIYQQQocSZSCEEEIIIYQOJcpACCGEEEIIHUqUgRBCCCGEEDqUKAMhhBBCCCF0KFEGQgghhBBC6FCiDIQQQgghhNChRBkIIYQQQgihQ4kyEEIIIYQQQocSZSCEEEIIIYQOJcpACCGEEEIIHUqUgRBCCCGEEDqUKAMhhBBCCCF0KFEGQgghhBBC6Eia5v8DoHlt58dOH5sAAAAASUVORK5CYII=;" vertex="1" parent="1">
                    <mxGeometry x="330" y="160" width="771" height="317" as="geometry"/>
                </mxCell>
                <mxCell id="3" value="" style="verticalLabelPosition=bottom;verticalAlign=top;html=1;shadow=0;dashed=0;strokeWidth=2;shape=mxgraph.android.phone2;strokeColor=#000000;rounded=1;" vertex="1" parent="1">
                    <mxGeometry x="1281" y="1862.5" width="100" height="190" as="geometry"/>
                </mxCell>
                <mxCell id="4" value="desktop" style="outlineConnect=0;gradientColor=none;fontColor=#545B64;strokeColor=none;fillColor=#000000;dashed=0;verticalLabelPosition=bottom;verticalAlign=top;align=center;html=1;fontSize=12;fontStyle=0;aspect=fixed;shape=mxgraph.aws4.illustration_desktop;pointerEvents=1;rounded=1;" vertex="1" parent="1">
                    <mxGeometry x="1724.18" y="1944.6" width="115.82" height="105.4" as="geometry"/>
                </mxCell>
                <mxCell id="5" value="" style="html=1;whiteSpace=wrap;shape=isoCube2;backgroundOutline=1;isoAngle=15;strokeColor=#000000;strokeWidth=2;fillColor=#FFFFFF;rounded=1;" vertex="1" parent="1">
                    <mxGeometry x="1400" y="2180" width="90" height="100" as="geometry"/>
                </mxCell>
                <mxCell id="6" value="" style="html=1;whiteSpace=wrap;shape=isoCube2;backgroundOutline=1;isoAngle=15;strokeColor=#000000;strokeWidth=2;fillColor=#FFFFFF;rounded=1;" vertex="1" parent="1">
                    <mxGeometry x="1619" y="1940" width="90" height="100" as="geometry"/>
                </mxCell>
                <mxCell id="7" value="MariaDB" style="strokeWidth=2;html=1;shape=mxgraph.flowchart.database;whiteSpace=wrap;strokeColor=#000000;fillColor=#FFFFFF;rounded=1;" vertex="1" parent="1">
                    <mxGeometry x="1500" y="2360" width="90" height="120" as="geometry"/>
                </mxCell>
                <mxCell id="8" value="Ionic&lt;br&gt;Capacitor" style="text;html=1;align=center;verticalAlign=middle;resizable=0;points=[];autosize=1;strokeColor=none;fillColor=none;rounded=1;" vertex="1" parent="1">
                    <mxGeometry x="1296" y="1937.5" width="70" height="40" as="geometry"/>
                </mxCell>
                <mxCell id="9" value="VueJS" style="text;html=1;align=center;verticalAlign=middle;resizable=0;points=[];autosize=1;strokeColor=none;fillColor=none;rounded=1;" vertex="1" parent="1">
                    <mxGeometry x="1670.0000000000002" y="1980" width="60" height="30" as="geometry"/>
                </mxCell>
                <mxCell id="10" value="" style="html=1;whiteSpace=wrap;shape=isoCube2;backgroundOutline=1;isoAngle=15;strokeColor=#000000;strokeWidth=2;fillColor=#FFFFFF;rounded=1;" vertex="1" parent="1">
                    <mxGeometry x="1750" y="1680" width="90" height="100" as="geometry"/>
                </mxCell>
                <mxCell id="11" value="AUTHENTIFICATION" style="text;html=1;align=center;verticalAlign=middle;resizable=0;points=[];autosize=1;strokeColor=none;fillColor=none;rounded=1;" vertex="1" parent="1">
                    <mxGeometry x="1810" y="1650" width="140" height="30" as="geometry"/>
                </mxCell>
                <mxCell id="12" value="" style="outlineConnect=0;fontColor=#232F3E;gradientColor=none;fillColor=#232F3D;strokeColor=none;dashed=0;verticalLabelPosition=bottom;verticalAlign=top;align=center;html=1;fontSize=12;fontStyle=0;aspect=fixed;pointerEvents=1;shape=mxgraph.aws4.user;strokeWidth=2;rounded=1;" vertex="1" parent="1">
                    <mxGeometry x="1537" y="1702" width="78" height="78" as="geometry"/>
                </mxCell>
                <mxCell id="13" value="TOKEN" style="text;html=1;align=center;verticalAlign=middle;resizable=0;points=[];autosize=1;strokeColor=none;fillColor=none;rounded=1;" vertex="1" parent="1">
                    <mxGeometry x="1670" y="1760" width="60" height="30" as="geometry"/>
                </mxCell>
                <mxCell id="14" value="FRONT WEB" style="text;html=1;align=center;verticalAlign=middle;resizable=0;points=[];autosize=1;strokeColor=none;fillColor=none;rounded=1;" vertex="1" parent="1">
                    <mxGeometry x="1634.18" y="1950" width="100" height="30" as="geometry"/>
                </mxCell>
                <mxCell id="15" value="ID / PWD" style="text;html=1;align=center;verticalAlign=middle;resizable=0;points=[];autosize=1;strokeColor=none;fillColor=none;rounded=1;" vertex="1" parent="1">
                    <mxGeometry x="1676" y="1655" width="70" height="30" as="geometry"/>
                </mxCell>
                <mxCell id="16" value="TOKEN" style="text;html=1;align=center;verticalAlign=middle;resizable=0;points=[];autosize=1;strokeColor=none;fillColor=none;rounded=1;" vertex="1" parent="1">
                    <mxGeometry x="1654.18" y="1860" width="60" height="30" as="geometry"/>
                </mxCell>
                <mxCell id="17" value="BACK GROUP" style="text;html=1;align=center;verticalAlign=middle;resizable=0;points=[];autosize=1;strokeColor=none;fillColor=none;rounded=1;" vertex="1" parent="1">
                    <mxGeometry x="1281" y="2200" width="100" height="30" as="geometry"/>
                </mxCell>
                <mxCell id="18" value="" style="html=1;whiteSpace=wrap;shape=isoCube2;backgroundOutline=1;isoAngle=15;strokeColor=#000000;strokeWidth=2;fillColor=#FFFFFF;rounded=1;" vertex="1" parent="1">
                    <mxGeometry x="1440" y="1935" width="90" height="100" as="geometry"/>
                </mxCell>
                <mxCell id="19" value="FRONT MOBILE APP" style="text;html=1;align=center;verticalAlign=middle;resizable=0;points=[];autosize=1;strokeColor=none;fillColor=none;rounded=1;" vertex="1" parent="1">
                    <mxGeometry x="1390" y="1980" width="140" height="30" as="geometry"/>
                </mxCell>
                <mxCell id="20" value="" style="html=1;whiteSpace=wrap;shape=isoCube2;backgroundOutline=1;isoAngle=15;strokeColor=#000000;strokeWidth=2;fillColor=#FFFFFF;rounded=1;" vertex="1" parent="1">
                    <mxGeometry x="1606" y="2180" width="90" height="100" as="geometry"/>
                </mxCell>
                <mxCell id="21" value="BACK MONEYPOT" style="text;html=1;align=center;verticalAlign=middle;resizable=0;points=[];autosize=1;strokeColor=none;fillColor=none;rounded=1;" vertex="1" parent="1">
                    <mxGeometry x="1700" y="2240" width="130" height="30" as="geometry"/>
                </mxCell>
                <mxCell id="22" value="MariaDB" style="strokeWidth=2;html=1;shape=mxgraph.flowchart.database;whiteSpace=wrap;strokeColor=#000000;fillColor=#FFFFFF;rounded=1;" vertex="1" parent="1">
                    <mxGeometry x="2130" y="1676" width="90" height="130" as="geometry"/>
                </mxCell>
                <mxCell id="23" value="IS LEGIT ?" style="text;html=1;align=center;verticalAlign=middle;resizable=0;points=[];autosize=1;strokeColor=none;fillColor=none;rounded=1;" vertex="1" parent="1">
                    <mxGeometry x="2031" y="1715" width="80" height="30" as="geometry"/>
                </mxCell>
                <mxCell id="24" value="" style="shape=flexArrow;endArrow=classic;startArrow=classic;html=1;fillColor=#FF66FF;rounded=1;" edge="1" parent="1" source="20" target="10">
                    <mxGeometry width="100" height="100" relative="1" as="geometry">
                        <mxPoint x="1770" y="2160" as="sourcePoint"/>
                        <mxPoint x="2150" y="1790" as="targetPoint"/>
                        <Array as="points">
                            <mxPoint x="1910" y="2200"/>
                            <mxPoint x="2050" y="2080"/>
                            <mxPoint x="2030" y="1920"/>
                        </Array>
                    </mxGeometry>
                </mxCell>
                <mxCell id="25" value="Comment verifier la légitimité des droits&lt;br&gt;liés au token ?" style="text;html=1;align=center;verticalAlign=middle;resizable=0;points=[];autosize=1;strokeColor=none;fillColor=none;rounded=1;" vertex="1" parent="1">
                    <mxGeometry x="2031" y="2120" width="230" height="40" as="geometry"/>
                </mxCell>
                <mxCell id="26" value="Comment vérifier l'authenticité d'un token ?" style="text;html=1;align=center;verticalAlign=middle;resizable=0;points=[];autosize=1;strokeColor=none;fillColor=none;rounded=1;" vertex="1" parent="1">
                    <mxGeometry x="2000" y="2200" width="250" height="30" as="geometry"/>
                </mxCell>
                <mxCell id="27" value="" style="html=1;whiteSpace=wrap;shape=isoCube2;backgroundOutline=1;isoAngle=15;strokeColor=#000000;strokeWidth=2;fillColor=#FFFFFF;rounded=1;" vertex="1" parent="1">
                    <mxGeometry x="2180" y="1905" width="90" height="100" as="geometry"/>
                </mxCell>
                <mxCell id="28" value="" style="aspect=fixed;html=1;points=[];align=center;image;fontSize=12;image=img/lib/mscae/Docker.svg;rounded=1;" vertex="1" parent="1">
                    <mxGeometry x="2300" y="1940" width="42.68" height="35" as="geometry"/>
                </mxCell>
                <mxCell id="29" value="clé privée / clé publique ?" style="text;html=1;align=center;verticalAlign=middle;resizable=0;points=[];autosize=1;strokeColor=none;fillColor=none;rounded=1;" vertex="1" parent="1">
                    <mxGeometry x="2130" y="2160" width="160" height="30" as="geometry"/>
                </mxCell>
                <mxCell id="30" value="" style="shape=flexArrow;endArrow=classic;startArrow=classic;html=1;fillColor=#99FFFF;gradientColor=#FF0000;rounded=1;" edge="1" parent="1" source="6" target="12">
                    <mxGeometry width="100" height="100" relative="1" as="geometry">
                        <mxPoint x="1610" y="1910" as="sourcePoint"/>
                        <mxPoint x="2222.09" y="1860" as="targetPoint"/>
                    </mxGeometry>
                </mxCell>
                <mxCell id="31" value="Table" style="shape=table;startSize=30;container=1;collapsible=0;childLayout=tableLayout;fontStyle=1;align=center;rounded=1;" vertex="1" parent="1">
                    <mxGeometry x="2240" y="1640" width="360" height="150" as="geometry"/>
                </mxCell>
                <mxCell id="32" value="" style="shape=tableRow;horizontal=0;startSize=0;swimlaneHead=0;swimlaneBody=0;top=0;left=0;bottom=0;right=0;collapsible=0;dropTarget=0;fillColor=none;points=[[0,0.5],[1,0.5]];portConstraint=eastwest;rounded=1;" vertex="1" parent="31">
                    <mxGeometry y="30" width="360" height="40" as="geometry"/>
                </mxCell>
                <mxCell id="33" value="email" style="shape=partialRectangle;html=1;whiteSpace=wrap;connectable=0;fillColor=none;top=0;left=0;bottom=0;right=0;overflow=hidden;rounded=1;" vertex="1" parent="32">
                    <mxGeometry width="60" height="40" as="geometry">
                        <mxRectangle width="60" height="40" as="alternateBounds"/>
                    </mxGeometry>
                </mxCell>
                <mxCell id="34" value="" style="shape=partialRectangle;html=1;whiteSpace=wrap;connectable=0;fillColor=none;top=0;left=0;bottom=0;right=0;overflow=hidden;rounded=1;" vertex="1" parent="32">
                    <mxGeometry x="60" width="60" height="40" as="geometry">
                        <mxRectangle width="60" height="40" as="alternateBounds"/>
                    </mxGeometry>
                </mxCell>
                <mxCell id="35" value="" style="shape=partialRectangle;html=1;whiteSpace=wrap;connectable=0;fillColor=none;top=0;left=0;bottom=0;right=0;overflow=hidden;rounded=1;" vertex="1" parent="32">
                    <mxGeometry x="120" width="60" height="40" as="geometry">
                        <mxRectangle width="60" height="40" as="alternateBounds"/>
                    </mxGeometry>
                </mxCell>
                <mxCell id="36" style="shape=partialRectangle;html=1;whiteSpace=wrap;connectable=0;fillColor=none;top=0;left=0;bottom=0;right=0;overflow=hidden;rounded=1;" vertex="1" parent="32">
                    <mxGeometry x="180" width="60" height="40" as="geometry">
                        <mxRectangle width="60" height="40" as="alternateBounds"/>
                    </mxGeometry>
                </mxCell>
                <mxCell id="37" style="shape=partialRectangle;html=1;whiteSpace=wrap;connectable=0;fillColor=none;top=0;left=0;bottom=0;right=0;overflow=hidden;rounded=1;" vertex="1" parent="32">
                    <mxGeometry x="240" width="60" height="40" as="geometry">
                        <mxRectangle width="60" height="40" as="alternateBounds"/>
                    </mxGeometry>
                </mxCell>
                <mxCell id="38" style="shape=partialRectangle;html=1;whiteSpace=wrap;connectable=0;fillColor=none;top=0;left=0;bottom=0;right=0;overflow=hidden;rounded=1;" vertex="1" parent="32">
                    <mxGeometry x="300" width="60" height="40" as="geometry">
                        <mxRectangle width="60" height="40" as="alternateBounds"/>
                    </mxGeometry>
                </mxCell>
                <mxCell id="39" value="" style="shape=tableRow;horizontal=0;startSize=0;swimlaneHead=0;swimlaneBody=0;top=0;left=0;bottom=0;right=0;collapsible=0;dropTarget=0;fillColor=none;points=[[0,0.5],[1,0.5]];portConstraint=eastwest;rounded=1;" vertex="1" parent="31">
                    <mxGeometry y="70" width="360" height="40" as="geometry"/>
                </mxCell>
                <mxCell id="40" value="" style="shape=partialRectangle;html=1;whiteSpace=wrap;connectable=0;fillColor=none;top=0;left=0;bottom=0;right=0;overflow=hidden;rounded=1;" vertex="1" parent="39">
                    <mxGeometry width="60" height="40" as="geometry">
                        <mxRectangle width="60" height="40" as="alternateBounds"/>
                    </mxGeometry>
                </mxCell>
                <mxCell id="41" value="" style="shape=partialRectangle;html=1;whiteSpace=wrap;connectable=0;fillColor=none;top=0;left=0;bottom=0;right=0;overflow=hidden;rounded=1;" vertex="1" parent="39">
                    <mxGeometry x="60" width="60" height="40" as="geometry">
                        <mxRectangle width="60" height="40" as="alternateBounds"/>
                    </mxGeometry>
                </mxCell>
                <mxCell id="42" value="" style="shape=partialRectangle;html=1;whiteSpace=wrap;connectable=0;fillColor=none;top=0;left=0;bottom=0;right=0;overflow=hidden;rounded=1;" vertex="1" parent="39">
                    <mxGeometry x="120" width="60" height="40" as="geometry">
                        <mxRectangle width="60" height="40" as="alternateBounds"/>
                    </mxGeometry>
                </mxCell>
                <mxCell id="43" style="shape=partialRectangle;html=1;whiteSpace=wrap;connectable=0;fillColor=none;top=0;left=0;bottom=0;right=0;overflow=hidden;rounded=1;" vertex="1" parent="39">
                    <mxGeometry x="180" width="60" height="40" as="geometry">
                        <mxRectangle width="60" height="40" as="alternateBounds"/>
                    </mxGeometry>
                </mxCell>
                <mxCell id="44" style="shape=partialRectangle;html=1;whiteSpace=wrap;connectable=0;fillColor=none;top=0;left=0;bottom=0;right=0;overflow=hidden;rounded=1;" vertex="1" parent="39">
                    <mxGeometry x="240" width="60" height="40" as="geometry">
                        <mxRectangle width="60" height="40" as="alternateBounds"/>
                    </mxGeometry>
                </mxCell>
                <mxCell id="45" style="shape=partialRectangle;html=1;whiteSpace=wrap;connectable=0;fillColor=none;top=0;left=0;bottom=0;right=0;overflow=hidden;rounded=1;" vertex="1" parent="39">
                    <mxGeometry x="300" width="60" height="40" as="geometry">
                        <mxRectangle width="60" height="40" as="alternateBounds"/>
                    </mxGeometry>
                </mxCell>
                <mxCell id="46" value="" style="shape=tableRow;horizontal=0;startSize=0;swimlaneHead=0;swimlaneBody=0;top=0;left=0;bottom=0;right=0;collapsible=0;dropTarget=0;fillColor=none;points=[[0,0.5],[1,0.5]];portConstraint=eastwest;rounded=1;" vertex="1" parent="31">
                    <mxGeometry y="110" width="360" height="40" as="geometry"/>
                </mxCell>
                <mxCell id="47" value="" style="shape=partialRectangle;html=1;whiteSpace=wrap;connectable=0;fillColor=none;top=0;left=0;bottom=0;right=0;overflow=hidden;rounded=1;" vertex="1" parent="46">
                    <mxGeometry width="60" height="40" as="geometry">
                        <mxRectangle width="60" height="40" as="alternateBounds"/>
                    </mxGeometry>
                </mxCell>
                <mxCell id="48" value="" style="shape=partialRectangle;html=1;whiteSpace=wrap;connectable=0;fillColor=none;top=0;left=0;bottom=0;right=0;overflow=hidden;rounded=1;" vertex="1" parent="46">
                    <mxGeometry x="60" width="60" height="40" as="geometry">
                        <mxRectangle width="60" height="40" as="alternateBounds"/>
                    </mxGeometry>
                </mxCell>
                <mxCell id="49" value="" style="shape=partialRectangle;html=1;whiteSpace=wrap;connectable=0;fillColor=none;top=0;left=0;bottom=0;right=0;overflow=hidden;rounded=1;" vertex="1" parent="46">
                    <mxGeometry x="120" width="60" height="40" as="geometry">
                        <mxRectangle width="60" height="40" as="alternateBounds"/>
                    </mxGeometry>
                </mxCell>
                <mxCell id="50" style="shape=partialRectangle;html=1;whiteSpace=wrap;connectable=0;fillColor=none;top=0;left=0;bottom=0;right=0;overflow=hidden;rounded=1;" vertex="1" parent="46">
                    <mxGeometry x="180" width="60" height="40" as="geometry">
                        <mxRectangle width="60" height="40" as="alternateBounds"/>
                    </mxGeometry>
                </mxCell>
                <mxCell id="51" style="shape=partialRectangle;html=1;whiteSpace=wrap;connectable=0;fillColor=none;top=0;left=0;bottom=0;right=0;overflow=hidden;rounded=1;" vertex="1" parent="46">
                    <mxGeometry x="240" width="60" height="40" as="geometry">
                        <mxRectangle width="60" height="40" as="alternateBounds"/>
                    </mxGeometry>
                </mxCell>
                <mxCell id="52" style="shape=partialRectangle;html=1;whiteSpace=wrap;connectable=0;fillColor=none;top=0;left=0;bottom=0;right=0;overflow=hidden;rounded=1;" vertex="1" parent="46">
                    <mxGeometry x="300" width="60" height="40" as="geometry">
                        <mxRectangle width="60" height="40" as="alternateBounds"/>
                    </mxGeometry>
                </mxCell>
                <mxCell id="53" value="" style="shape=flexArrow;endArrow=classic;startArrow=classic;html=1;fillColor=#99FFFF;gradientColor=#FF0000;rounded=1;" edge="1" parent="1" source="18" target="12">
                    <mxGeometry width="100" height="100" relative="1" as="geometry">
                        <mxPoint x="1656.3293172690765" y="1950" as="sourcePoint"/>
                        <mxPoint x="1599.7831325301208" y="1790.0000000000005" as="targetPoint"/>
                    </mxGeometry>
                </mxCell>
                <mxCell id="54" value="" style="shape=flexArrow;endArrow=classic;startArrow=classic;html=1;fillColor=#FF0000;rounded=1;" edge="1" parent="1" source="10" target="6">
                    <mxGeometry width="100" height="100" relative="1" as="geometry">
                        <mxPoint x="1656.3293172690765" y="1950" as="sourcePoint"/>
                        <mxPoint x="1599.7831325301208" y="1790.0000000000005" as="targetPoint"/>
                    </mxGeometry>
                </mxCell>
                <mxCell id="55" value="" style="shape=flexArrow;endArrow=classic;startArrow=classic;html=1;fillColor=#FFFFFF;rounded=1;" edge="1" parent="1" source="22" target="10">
                    <mxGeometry width="100" height="100" relative="1" as="geometry">
                        <mxPoint x="2123.55" y="1740" as="sourcePoint"/>
                        <mxPoint x="1930.004545454546" y="1740" as="targetPoint"/>
                    </mxGeometry>
                </mxCell>
                <mxCell id="56" value="" style="shape=flexArrow;endArrow=classic;startArrow=classic;html=1;fillColor=#FFFFFF;rounded=1;" edge="1" parent="1" source="5" target="18">
                    <mxGeometry width="100" height="100" relative="1" as="geometry">
                        <mxPoint x="1400" y="2110" as="sourcePoint"/>
                        <mxPoint x="1371.0049180327871" y="2050" as="targetPoint"/>
                    </mxGeometry>
                </mxCell>
                <mxCell id="57" value="" style="shape=flexArrow;endArrow=classic;startArrow=classic;html=1;fillColor=#FFFFFF;rounded=1;" edge="1" parent="1" source="20" target="18">
                    <mxGeometry width="100" height="100" relative="1" as="geometry">
                        <mxPoint x="1456.8888888888891" y="2170" as="sourcePoint"/>
                        <mxPoint x="1484.1111111111109" y="2045" as="targetPoint"/>
                    </mxGeometry>
                </mxCell>
                <mxCell id="58" value="" style="shape=flexArrow;endArrow=classic;startArrow=classic;html=1;fillColor=#FFFFFF;rounded=1;" edge="1" parent="1" source="5" target="6">
                    <mxGeometry width="100" height="100" relative="1" as="geometry">
                        <mxPoint x="1627.1224489795918" y="2190" as="sourcePoint"/>
                        <mxPoint x="1528.8775510204082" y="2045" as="targetPoint"/>
                    </mxGeometry>
                </mxCell>
                <mxCell id="59" value="" style="shape=flexArrow;endArrow=classic;startArrow=classic;html=1;fillColor=#FFFFFF;rounded=1;" edge="1" parent="1" source="20" target="6">
                    <mxGeometry width="100" height="100" relative="1" as="geometry">
                        <mxPoint x="1491" y="2176.578947368421" as="sourcePoint"/>
                        <mxPoint x="1629" y="2043.4210526315787" as="targetPoint"/>
                    </mxGeometry>
                </mxCell>
                <mxCell id="60" value="" style="shape=flexArrow;endArrow=classic;startArrow=classic;html=1;fillColor=#FFFFFF;rounded=1;" edge="1" parent="1" source="5" target="20">
                    <mxGeometry width="100" height="100" relative="1" as="geometry">
                        <mxPoint x="1663.708333333333" y="2190" as="sourcePoint"/>
                        <mxPoint x="1671.291666666667" y="2050" as="targetPoint"/>
                    </mxGeometry>
                </mxCell>
                <mxCell id="61" value="" style="shape=flexArrow;endArrow=classic;startArrow=classic;html=1;fillColor=#FFFFFF;rounded=1;" edge="1" parent="1" source="5" target="7">
                    <mxGeometry width="100" height="100" relative="1" as="geometry">
                        <mxPoint x="1455" y="2279.996046511628" as="sourcePoint"/>
                        <mxPoint x="1580" y="2291.623953488372" as="targetPoint"/>
                    </mxGeometry>
                </mxCell>
                <mxCell id="62" value="" style="shape=flexArrow;endArrow=classic;startArrow=classic;html=1;fillColor=#FFFFFF;rounded=1;" edge="1" parent="1" source="20" target="7">
                    <mxGeometry width="100" height="100" relative="1" as="geometry">
                        <mxPoint x="1469.5714285714284" y="2270" as="sourcePoint"/>
                        <mxPoint x="1516.7142857142853" y="2370" as="targetPoint"/>
                    </mxGeometry>
                </mxCell>
                <mxCell id="63" value="" style="shape=flexArrow;endArrow=classic;startArrow=classic;html=1;fillColor=#FFFFFF;rounded=1;" edge="1" parent="1" source="22" target="5">
                    <mxGeometry width="100" height="100" relative="1" as="geometry">
                        <mxPoint x="1635" y="1598.46" as="sourcePoint"/>
                        <mxPoint x="1270" y="1660" as="targetPoint"/>
                        <Array as="points">
                            <mxPoint x="2050" y="1610"/>
                            <mxPoint x="1400" y="1620"/>
                            <mxPoint x="1140" y="1990"/>
                        </Array>
                    </mxGeometry>
                </mxCell>
                <mxCell id="64" value="" style="shape=flexArrow;endArrow=classic;startArrow=classic;html=1;fillColor=#FF0000;rounded=1;" edge="1" parent="1" source="10" target="18">
                    <mxGeometry width="100" height="100" relative="1" as="geometry">
                        <mxPoint x="1822.650602409638" y="1801" as="sourcePoint"/>
                        <mxPoint x="1711.3493975903611" y="1950" as="targetPoint"/>
                    </mxGeometry>
                </mxCell>
                <mxCell id="65" value="" style="html=1;whiteSpace=wrap;shape=isoCube2;backgroundOutline=1;isoAngle=15;strokeColor=#000000;strokeWidth=2;fillColor=#FFFFFF;rounded=1;" vertex="1" parent="1">
                    <mxGeometry x="2000" y="1970" width="90" height="100" as="geometry"/>
                </mxCell>
                <mxCell id="66" value="&lt;font face=&quot;Verdana&quot;&gt;service de synchro ?&lt;br&gt;des droits, garantissant les droits en session ?&lt;br&gt;IS IT OVERKILL, YES NO DOUBT&lt;br&gt;&lt;/font&gt;" style="text;html=1;align=center;verticalAlign=middle;resizable=0;points=[];autosize=1;strokeColor=none;fillColor=none;fontSize=20;fontFamily=Architects Daughter;hachureGap=4;fontSource=https%3A%2F%2Ffonts.googleapis.com%2Fcss%3Ffamily%3DArchitects%2BDaughter;rounded=1;" vertex="1" parent="1">
                    <mxGeometry x="1960" y="2025" width="490" height="90" as="geometry"/>
                </mxCell>
            </root>
        </mxGraphModel>
    </diagram>
</mxfile>